<svg width="24" height="24" viewBox="0 0 24 24" fill="none" xmlns="http://www.w3.org/2000/svg">
    <g clip-path="url(#clip0_1068_2133)">
        <path
            d="M12 5.25C11.4808 5.25 10.9733 5.09605 10.5416 4.80761C10.11 4.51917 9.7735 4.1092 9.57482 3.62955C9.37614 3.14989 9.32415 2.62209 9.42544 2.11289C9.52673 1.60369 9.77673 1.13596 10.1438 0.768846C10.511 0.401733 10.9787 0.151726 11.4879 0.0504398C11.9971 -0.0508464 12.5249 0.00113739 13.0045 0.199817C13.4842 0.398497 13.8942 0.73495 14.1826 1.16663C14.471 1.59831 14.625 2.10583 14.625 2.625C14.6243 3.32097 14.3475 3.98821 13.8553 4.48033C13.3632 4.97246 12.696 5.24926 12 5.25Z"
            fill="#34495E" />
        <path
            d="M20.25 5.28756L20.2289 5.29318L20.2092 5.29927C20.1624 5.3124 20.1155 5.32646 20.0686 5.34099C19.1963 5.59693 14.9625 6.79037 11.9799 6.79037C9.20815 6.79037 5.35736 5.75912 4.12549 5.40896C4.00289 5.36156 3.87768 5.32118 3.75049 5.28802C2.85986 5.05365 2.25049 5.95834 2.25049 6.78521C2.25049 7.60412 2.98643 7.99412 3.72939 8.27396V8.28709L8.19283 9.68115C8.64893 9.85599 8.7708 10.0346 8.83033 10.1893C9.02393 10.6857 8.86924 11.6686 8.81439 12.0118L8.54252 14.1212L7.03361 22.3801C7.02893 22.4026 7.02471 22.4255 7.02096 22.449L7.01018 22.5085C6.90143 23.2655 7.45736 24.0001 8.51018 24.0001C9.42893 24.0001 9.83439 23.3658 10.0102 22.5029C10.186 21.6399 11.3227 15.1168 11.9789 15.1168C12.6352 15.1168 13.9871 22.5029 13.9871 22.5029C14.1628 23.3658 14.5683 24.0001 15.4871 24.0001C16.5427 24.0001 17.0986 23.2622 16.9871 22.5029C16.9775 22.439 16.9656 22.3755 16.9514 22.3126L15.4219 14.1221L15.1505 12.0127C14.9541 10.7841 15.1121 10.3782 15.1655 10.283C15.1669 10.2808 15.1682 10.2784 15.1692 10.276C15.2199 10.1822 15.4505 9.97224 15.9886 9.77021L20.1736 8.30724C20.1993 8.3004 20.2247 8.29226 20.2495 8.28287C20.9995 8.00162 21.7495 7.61256 21.7495 6.78615C21.7495 5.95974 21.1406 5.05365 20.25 5.28756Z"
            fill="#34495E" />
    </g>
    <defs>
        <clipPath id="clip0_1068_2133">
            <rect width="24" height="24" fill="white" />
        </clipPath>
    </defs>
</svg>
