<svg width="596" height="384" viewBox="0 0 596 384" fill="none" xmlns="http://www.w3.org/2000/svg">
    <path d="M535.668 357.734H496.234V357.994H535.668V357.734Z" fill="#EBEBEB" />
    <path d="M394.363 360.567H384.017V360.827H394.363V360.567Z" fill="#EBEBEB" />
    <path d="M495.043 348.069H472.195V348.329H495.043V348.069Z" fill="#EBEBEB" />
    <path d="M113.885 349.819H62.4609V350.079H113.885V349.819Z" fill="#EBEBEB" />
    <path d="M132.03 349.819H124.493V350.079H132.03V349.819Z" fill="#EBEBEB" />
    <path d="M268.072 354.214H156.533V354.474H268.072V354.214Z" fill="#EBEBEB" />
    <path
        d="M282.181 294.527H52.2929C50.4898 294.527 48.7606 293.901 47.4856 292.786C46.2107 291.67 45.4944 290.158 45.4944 288.581V5.89471C45.5101 4.32657 46.2333 2.82733 47.5066 1.72332C48.7798 0.619322 50.5001 -6.01198e-05 52.2929 4.37682e-09H282.181C283.984 4.37684e-09 285.714 0.626535 286.989 1.74177C288.263 2.85701 288.98 4.3696 288.98 5.94679V288.581C288.98 290.158 288.263 291.67 286.989 292.786C285.714 293.901 283.984 294.527 282.181 294.527ZM52.2929 0.208295C50.5698 0.211048 48.9181 0.811034 47.6996 1.87685C46.4811 2.94266 45.7952 4.38743 45.792 5.89471V288.581C45.7952 290.088 46.4811 291.533 47.6996 292.599C48.9181 293.664 50.5698 294.264 52.2929 294.267H282.181C283.904 294.264 285.556 293.664 286.775 292.599C287.993 291.533 288.679 290.088 288.682 288.581V5.89471C288.679 4.38743 287.993 2.94266 286.775 1.87685C285.556 0.811034 283.904 0.211048 282.181 0.208295H52.2929Z"
        fill="#EBEBEB" />
    <path
        d="M539.728 294.527H309.816C308.014 294.525 306.286 293.897 305.012 292.783C303.738 291.668 303.02 290.157 303.017 288.581V5.89471C303.036 4.32742 303.76 2.82975 305.033 1.72633C306.305 0.622912 308.024 0.00265397 309.816 0H539.728C541.516 0.00542032 543.231 0.627224 544.499 1.73064C545.767 2.83405 546.487 4.33017 546.502 5.89471V288.581C546.502 290.154 545.789 291.664 544.52 292.778C543.25 293.893 541.527 294.522 539.728 294.527ZM309.816 0.208295C308.092 0.211048 306.441 0.811034 305.222 1.87685C304.004 2.94266 303.318 4.38743 303.315 5.89471V288.581C303.318 290.088 304.004 291.533 305.222 292.599C306.441 293.664 308.092 294.264 309.816 294.267H539.728C541.451 294.264 543.103 293.664 544.321 292.599C545.54 291.533 546.225 290.088 546.229 288.581V5.89471C546.225 4.38743 545.54 2.94266 544.321 1.87685C543.103 0.811034 541.451 0.211048 539.728 0.208295H309.816Z"
        fill="#EBEBEB" />
    <path d="M595.319 340.977H0V341.237H595.319V340.977Z" fill="#EBEBEB" />
    <path
        d="M122.91 168.76V163.031H106.348L72.1646 147.201V163.031H68.2355V168.76H64.0564V340.925H127.101V168.76H122.91Z"
        fill="#EBEBEB" />
    <path d="M93.4888 176.321H82.9517V185.538H93.4888V176.321Z" fill="#FAFAFA" />
    <path d="M93.4888 190.224H82.9517V199.441H93.4888V190.224Z" fill="#FAFAFA" />
    <path d="M78.7725 204.118H68.2354V213.335H78.7725V204.118Z" fill="#FAFAFA" />
    <path d="M108.193 204.118H97.6562V213.335H108.193V204.118Z" fill="#FAFAFA" />
    <path d="M122.909 204.118H112.372V213.335H122.909V204.118Z" fill="#FAFAFA" />
    <path d="M108.193 218.021H97.6562V227.238H108.193V218.021Z" fill="#FAFAFA" />
    <path d="M93.4888 231.914H82.9517V241.131H93.4888V231.914Z" fill="#FAFAFA" />
    <path d="M122.909 231.914H112.372V241.131H122.909V231.914Z" fill="#FAFAFA" />
    <path d="M78.7725 245.818H68.2354V255.035H78.7725V245.818Z" fill="#FAFAFA" />
    <path d="M93.4888 245.818H82.9517V255.035H93.4888V245.818Z" fill="#FAFAFA" />
    <path d="M108.193 245.818H97.6562V255.035H108.193V245.818Z" fill="#FAFAFA" />
    <path d="M122.909 259.711H112.372V268.928H122.909V259.711Z" fill="#FAFAFA" />
    <path d="M78.7725 273.615H68.2354V282.832H78.7725V273.615Z" fill="#FAFAFA" />
    <path d="M122.909 287.518H112.372V296.735H122.909V287.518Z" fill="#FAFAFA" />
    <path d="M78.8534 301.205L68.3174 301.073L68.1666 310.289L78.7027 310.421L78.8534 301.205Z"
        fill="#FAFAFA" />
    <path d="M122.909 315.315H112.372V324.532H122.909V315.315Z" fill="#FAFAFA" />
    <path d="M222.209 236.851H159.165V340.914H222.209V236.851Z" fill="#E0E0E0" />
    <path d="M218.029 245.818H207.492V255.035H218.029V245.818Z" fill="#FAFAFA" />
    <path d="M173.881 259.711H163.344V268.928H173.881V259.711Z" fill="#FAFAFA" />
    <path d="M203.313 259.711H192.776V268.928H203.313V259.711Z" fill="#FAFAFA" />
    <path d="M218.029 259.711H207.492V268.928H218.029V259.711Z" fill="#FAFAFA" />
    <path d="M188.597 273.615H178.06V282.832H188.597V273.615Z" fill="#FAFAFA" />
    <path d="M173.881 287.518H163.344V296.735H173.881V287.518Z" fill="#FAFAFA" />
    <path d="M203.313 287.518H192.776V296.735H203.313V287.518Z" fill="#FAFAFA" />
    <path d="M218.029 287.518H207.492V296.735H218.029V287.518Z" fill="#FAFAFA" />
    <path d="M218.111 301.75L207.575 301.618L207.424 310.834L217.96 310.966L218.111 301.75Z"
        fill="#FAFAFA" />
    <path d="M188.597 315.315H178.06V324.532H188.597V315.315Z" fill="#FAFAFA" />
    <path d="M203.313 315.315H192.776V324.532H203.313V315.315Z" fill="#FAFAFA" />
    <path d="M379.921 191.505V182.997H360.251V191.505H327.604V340.925H384.683V191.505H379.921Z"
        fill="#EBEBEB" />
    <path d="M354.477 202.264H346.047V209.637H354.477V202.264Z" fill="#FAFAFA" />
    <path d="M366.252 202.264H357.822V209.637H366.252V202.264Z" fill="#FAFAFA" />
    <path d="M342.701 213.376H334.271V220.75H342.701V213.376Z" fill="#FAFAFA" />
    <path d="M354.477 213.376H346.047V220.75H354.477V213.376Z" fill="#FAFAFA" />
    <path d="M378.016 213.376H369.586V220.75H378.016V213.376Z" fill="#FAFAFA" />
    <path d="M342.701 224.499H334.271V231.873H342.701V224.499Z" fill="#FAFAFA" />
    <path d="M366.252 224.499H357.822V231.873H366.252V224.499Z" fill="#FAFAFA" />
    <path d="M378.016 224.499H369.586V231.873H378.016V224.499Z" fill="#FAFAFA" />
    <path d="M342.701 246.734H334.271V254.108H342.701V246.734Z" fill="#FAFAFA" />
    <path d="M366.252 246.734H357.822V254.108H366.252V246.734Z" fill="#FAFAFA" />
    <path d="M342.701 257.857H334.271V265.231H342.701V257.857Z" fill="#FAFAFA" />
    <path d="M354.477 257.857H346.047V265.231H354.477V257.857Z" fill="#FAFAFA" />
    <path d="M378.016 257.857H369.586V265.231H378.016V257.857Z" fill="#FAFAFA" />
    <path d="M378.016 268.98H369.586V276.354H378.016V268.98Z" fill="#FAFAFA" />
    <path d="M342.701 280.093H334.271V287.466H342.701V280.093Z" fill="#FAFAFA" />
    <path d="M354.477 280.093H346.047V287.466H354.477V280.093Z" fill="#FAFAFA" />
    <path d="M366.322 291.338L357.893 291.233L357.772 298.606L366.201 298.711L366.322 291.338Z"
        fill="#FAFAFA" />
    <path d="M378.082 291.475L369.653 291.37L369.533 298.743L377.962 298.848L378.082 291.475Z"
        fill="#FAFAFA" />
    <path d="M342.701 302.338H334.271V309.712H342.701V302.338Z" fill="#FAFAFA" />
    <path
        d="M523.464 128.101V99.981C514.273 99.9837 505.372 102.795 498.3 107.93C491.228 113.065 486.429 120.199 484.733 128.101H475.791V340.925H528.501V128.101H523.464Z"
        fill="#EBEBEB" />
    <path d="M488.697 139.234H480.268V146.608H488.697V139.234Z" fill="#FAFAFA" />
    <path d="M488.697 150.346H480.268V157.72H488.697V150.346Z" fill="#FAFAFA" />
    <path d="M512.248 150.346H503.818V157.72H512.248V150.346Z" fill="#FAFAFA" />
    <path d="M524.012 150.346H515.582V157.72H524.012V150.346Z" fill="#FAFAFA" />
    <path d="M500.473 161.469H492.043V168.843H500.473V161.469Z" fill="#FAFAFA" />
    <path d="M524.012 161.469H515.582V168.843H524.012V161.469Z" fill="#FAFAFA" />
    <path d="M488.697 172.592H480.268V179.966H488.697V172.592Z" fill="#FAFAFA" />
    <path d="M512.248 172.592H503.818V179.966H512.248V172.592Z" fill="#FAFAFA" />
    <path d="M512.248 183.705H503.818V191.078H512.248V183.705Z" fill="#FAFAFA" />
    <path d="M524.012 183.705H515.582V191.078H524.012V183.705Z" fill="#FAFAFA" />
    <path d="M500.473 194.828H492.043V202.201H500.473V194.828Z" fill="#FAFAFA" />
    <path d="M524.012 194.828H515.582V202.201H524.012V194.828Z" fill="#FAFAFA" />
    <path d="M500.473 205.95H492.043V213.324H500.473V205.95Z" fill="#FAFAFA" />
    <path d="M512.248 205.95H503.818V213.324H512.248V205.95Z" fill="#FAFAFA" />
    <path d="M512.248 217.063H503.818V224.437H512.248V217.063Z" fill="#FAFAFA" />
    <path d="M524.012 217.063H515.582V224.437H524.012V217.063Z" fill="#FAFAFA" />
    <path d="M500.547 239.274L492.118 239.168L491.998 246.541L500.426 246.647L500.547 239.274Z"
        fill="#FAFAFA" />
    <path d="M524.079 239.568L515.65 239.463L515.529 246.836L523.958 246.941L524.079 239.568Z"
        fill="#FAFAFA" />
    <path d="M524.012 250.421H515.582V257.795H524.012V250.421Z" fill="#FAFAFA" />
    <path d="M492.924 340.925H437.012V173.852L492.924 193.724V340.925Z" fill="#E0E0E0" />
    <path d="M463.301 191.141H454.871V198.514H463.301V191.141Z" fill="#FAFAFA" />
    <path d="M451.525 202.264H443.096V209.637H451.525V202.264Z" fill="#FAFAFA" />
    <path d="M451.525 213.376H443.096V220.75H451.525V213.376Z" fill="#FAFAFA" />
    <path d="M463.301 213.376H454.871V220.75H463.301V213.376Z" fill="#FAFAFA" />
    <path d="M475.076 213.376H466.646V220.75H475.076V213.376Z" fill="#FAFAFA" />
    <path d="M451.525 235.622H443.096V242.996H451.525V235.622Z" fill="#FAFAFA" />
    <path d="M475.076 235.622H466.646V242.996H475.076V235.622Z" fill="#FAFAFA" />
    <path d="M463.301 246.734H454.871V254.108H463.301V246.734Z" fill="#FAFAFA" />
    <path d="M451.525 257.857H443.096V265.231H451.525V257.857Z" fill="#FAFAFA" />
    <path d="M475.076 257.857H466.646V265.231H475.076V257.857Z" fill="#FAFAFA" />
    <path d="M486.852 257.857H478.422V265.231H486.852V257.857Z" fill="#FAFAFA" />
    <path d="M463.301 268.98H454.871V276.354H463.301V268.98Z" fill="#FAFAFA" />
    <path d="M451.525 280.093H443.096V287.466H451.525V280.093Z" fill="#FAFAFA" />
    <path d="M463.301 280.093H454.871V287.466H463.301V280.093Z" fill="#FAFAFA" />
    <path d="M486.852 280.093H478.422V287.466H486.852V280.093Z" fill="#FAFAFA" />
    <path d="M451.591 291.042L443.163 290.936L443.042 298.309L451.471 298.414L451.591 291.042Z"
        fill="#FAFAFA" />
    <path d="M475.147 291.326L466.718 291.22L466.597 298.593L475.026 298.699L475.147 291.326Z"
        fill="#FAFAFA" />
    <path d="M486.907 291.473L478.478 291.368L478.357 298.741L486.786 298.846L486.907 291.473Z"
        fill="#FAFAFA" />
    <path d="M463.301 302.338H454.871V309.712H463.301V302.338Z" fill="#FAFAFA" />
    <path
        d="M139.305 65.2064C129.256 65.2064 101.073 69.2681 101.073 54.323C101.073 41.6275 114.849 42.5648 114.849 42.5648C114.849 42.5648 114.456 31.5669 126.755 30.0672C139.34 28.5675 141.245 40.4819 141.245 40.4819C141.245 40.4819 163.094 32.9208 159.76 51.9381C159.76 51.9381 171.869 49.8551 171.869 58.3743C171.833 67.9038 149.044 65.1751 139.305 65.2064Z"
        fill="#F0F0F0" />
    <path
        d="M291.528 87.9624C277.562 87.9624 238.378 93.6072 238.378 72.8403C238.378 55.1353 257.523 56.4892 257.523 56.4892C257.523 56.4892 256.976 41.2005 274.038 39.1592C291.528 37.0763 294.171 53.594 294.171 53.594C294.171 53.594 324.532 43.0751 319.913 69.4764C319.913 69.4764 336.748 66.5394 336.748 78.433C336.748 91.7117 305.066 87.9208 291.528 87.9624Z"
        fill="#F0F0F0" />
    <path
        d="M437.262 60.8322C427.034 60.8322 398.375 64.998 398.375 49.7613C398.375 36.8471 412.389 37.8053 412.389 37.8053C412.389 37.8053 411.961 26.6199 424.462 25.1306C437.262 23.5996 439.191 35.6911 439.191 35.6911C439.191 35.6911 461.408 27.9946 458.026 47.3035C458.026 47.3035 470.35 45.158 470.35 53.8543C470.302 63.5296 447.168 60.8009 437.262 60.8322Z"
        fill="#F5F5F5" />
    <path
        d="M291.921 384C419.417 384 522.773 378.722 522.773 372.211C522.773 365.699 419.417 360.421 291.921 360.421C164.424 360.421 61.0679 365.699 61.0679 372.211C61.0679 378.722 164.424 384 291.921 384Z"
        fill="#F5F5F5" />
    <path
        d="M398.28 128.413C398.28 128.413 391.541 120.581 405.162 116.644C418.783 112.708 424.867 114.468 424.867 114.468C424.867 114.468 419.652 115.311 418.057 116.217C416.461 117.124 428.641 113.937 433.713 121.237C433.713 121.237 431.106 119.79 428.784 120.425C426.462 121.06 434.964 122.622 430.499 130.402C426.034 138.182 440.81 135.86 437.774 145.202C434.737 154.544 419.688 150.721 413.723 151.586C407.758 152.45 395.03 157.314 396.613 146.805C396.613 146.805 395.423 148.086 395.732 151.638C395.732 151.638 391.339 146.805 396.387 140.682C395.235 138.712 394.799 136.481 395.137 134.288C395.476 132.095 396.572 130.045 398.28 128.413Z"
        fill="#263238" />
    <path
        d="M448.192 245.068C448.192 245.068 459.503 270.178 462.11 283.602C464.718 297.027 471.397 350.058 471.397 350.058L461.539 351.1C461.539 351.1 446.489 318.627 445.882 287.685C445.882 287.685 432.249 261.554 425.867 251.661L448.192 245.068Z"
        fill="#FFB573" />
    <path
        d="M472.183 335.436L475.065 353.724C475.118 354.104 475.296 354.463 475.577 354.757C475.858 355.05 476.23 355.267 476.648 355.38C479.383 356.165 482.166 356.819 484.983 357.338C488.218 357.569 491.465 357.646 494.71 357.567C495.239 357.561 495.754 357.717 496.165 358.008C496.576 358.299 496.858 358.707 496.96 359.161C497.095 359.707 496.982 360.277 496.647 360.753C496.312 361.228 495.781 361.572 495.163 361.712L465.004 368.43C464.709 368.498 464.401 368.515 464.099 368.477C463.797 368.44 463.507 368.351 463.245 368.214C462.983 368.077 462.755 367.896 462.575 367.681C462.394 367.465 462.265 367.221 462.194 366.961L454.514 339.883C454.368 339.347 454.46 338.782 454.771 338.302C455.083 337.823 455.591 337.465 456.193 337.3L469.207 333.78C469.527 333.689 469.867 333.661 470.201 333.698C470.536 333.735 470.857 333.836 471.141 333.994C471.426 334.153 471.667 334.364 471.847 334.613C472.027 334.862 472.142 335.144 472.183 335.436Z"
        fill="#263238" />
    <path
        d="M436.595 207.783L440.071 218.708C440.071 218.708 445.584 228.852 452.835 250.161L427.903 257.774C427.903 257.774 412.818 242.808 409.341 225.811C405.864 208.814 409.341 208.773 409.341 208.773L436.595 207.783Z"
        fill="#263238" />
    <path opacity="0.2"
        d="M436.595 207.783L440.071 218.708C440.071 218.708 445.584 228.852 452.835 250.161L427.903 257.774C427.903 257.774 412.818 242.808 409.341 225.811C405.864 208.814 409.341 208.773 409.341 208.773L436.595 207.783Z"
        fill="white" />
    <path opacity="0.2"
        d="M431.308 216.021L426.736 217.167V223.416L422.045 236.361C422.045 236.361 421.402 243.704 421.462 250.254C423.7 253.202 425.677 255.462 426.832 256.659C439.012 240.579 431.308 216.021 431.308 216.021Z"
        fill="black" />
    <path
        d="M422.677 251.15C422.677 251.15 422.677 291.767 418.045 298.079C413.414 304.39 381.207 341.956 381.207 341.956L373.968 337.436C373.968 337.436 384.981 307.004 402.96 291.528C402.96 291.528 398.316 264.637 398.316 247.901L422.677 251.15Z"
        fill="#FFB573" />
    <path
        d="M392.565 332.406L379.944 347.215C379.677 347.517 379.515 347.88 379.477 348.26C379.439 348.641 379.527 349.023 379.73 349.361C381.041 351.591 382.484 353.76 384.052 355.859C386.173 358.01 388.422 360.061 390.791 362.004C391.17 362.327 391.408 362.754 391.467 363.214C391.526 363.673 391.4 364.137 391.113 364.524C390.767 364.994 390.228 365.33 389.608 365.461C388.987 365.593 388.332 365.511 387.779 365.233L360.93 351.454C360.666 351.321 360.436 351.143 360.252 350.93C360.068 350.718 359.934 350.476 359.859 350.218C359.783 349.96 359.768 349.691 359.813 349.428C359.857 349.164 359.962 348.911 360.12 348.684L376.432 324.73C376.76 324.258 377.28 323.912 377.887 323.761C378.494 323.611 379.144 323.666 379.706 323.918L391.791 329.427C392.086 329.561 392.345 329.749 392.548 329.979C392.751 330.209 392.895 330.476 392.969 330.759C393.042 331.043 393.044 331.337 392.975 331.621C392.905 331.906 392.765 332.173 392.565 332.406Z"
        fill="#263238" />
    <path
        d="M430.797 207.783C430.797 207.783 433.988 238.975 425.867 251.66L424.415 257.753H397.745C392.648 241.529 394.398 224.242 402.674 209.054L430.797 207.783Z"
        fill="#263238" />
    <path opacity="0.2"
        d="M430.797 207.783C430.797 207.783 433.988 238.975 425.867 251.66L424.415 257.753H397.745C392.648 241.529 394.398 224.242 402.674 209.054L430.797 207.783Z"
        fill="white" />
    <path
        d="M471.981 220.968L475.743 227.696L483.959 232.112C484.739 232.532 485.316 233.188 485.578 233.956C485.733 234.398 485.778 234.864 485.711 235.323C485.644 235.782 485.466 236.223 485.189 236.617C484.912 237.011 484.542 237.349 484.104 237.608C483.666 237.868 483.17 238.043 482.649 238.121L479.827 238.496C478.948 238.633 478.042 238.485 477.279 238.08L473.315 235.997C472.882 235.769 472.508 235.467 472.213 235.109C471.918 234.751 471.71 234.344 471.6 233.914L470.493 229.456L465.563 223.114L471.981 220.968Z"
        fill="#FFB573" />
    <path
        d="M430.32 155.179C430.32 155.179 438.048 154.762 445.584 166.635C453.121 178.508 453.359 187.1 457.491 193.276C462.503 200.795 464.742 200.368 474.6 224.218C473.805 225.148 472.806 225.931 471.661 226.519C470.516 227.107 469.249 227.49 467.933 227.644C467.933 227.644 454.002 210.064 447.323 197.879C440.643 185.694 428.772 163.386 428.772 163.386L430.32 155.179Z"
        fill="#845715" />
    <path opacity="0.2"
        d="M439.512 183.465C440.383 175.941 439.694 168.341 437.476 161.032L434.654 163.813C434.654 163.813 433.999 167.093 433.202 171.697C435.035 175.123 437.25 179.268 439.512 183.465Z"
        fill="black" />
    <path
        d="M407.508 141.536C408.853 146.108 410.437 154.533 406.937 157.803C411.294 160.439 416.025 162.567 421.01 164.135C426.606 159.595 423.391 156.991 423.391 156.991C417.438 156.022 417.319 152.211 418.069 148.576L407.508 141.536Z"
        fill="#FFB573" />
    <path opacity="0.2"
        d="M411.83 144.441L418.092 148.607C417.894 149.454 417.778 150.315 417.747 151.18C415.485 151.003 411.973 149.409 411.604 147.347C411.483 146.374 411.56 145.391 411.83 144.441Z"
        fill="black" />
    <path
        d="M401.697 134.995C405.079 142.035 406.341 145.087 411.972 147.493C420.438 151.127 429.582 145.951 428.641 138.172C427.82 131.163 422.426 120.831 413.234 120.467C411.202 120.367 409.175 120.724 407.345 121.505C405.516 122.285 403.946 123.463 402.785 124.925C401.625 126.388 400.912 128.086 400.715 129.858C400.518 131.63 400.844 133.417 401.661 135.047L401.697 134.995Z"
        fill="#FFB573" />
    <path
        d="M402.019 141.286C403.012 142.481 404.506 143.283 406.174 143.514C408.389 143.806 409.222 142.015 408.377 140.317C407.627 138.786 405.555 136.786 403.448 137.276C402.993 137.394 402.579 137.609 402.242 137.901C401.904 138.192 401.654 138.552 401.513 138.948C401.372 139.344 401.344 139.764 401.432 140.172C401.521 140.58 401.722 140.962 402.019 141.286Z"
        fill="#FFB573" />
    <path
        d="M420.926 132.485C422.142 133.731 423.548 134.825 425.105 135.735C424.833 136.075 424.478 136.36 424.067 136.568C423.656 136.777 423.198 136.905 422.724 136.943L420.926 132.485Z"
        fill="#ED893E" />
    <path
        d="M410.77 131.225C410.712 131.24 410.65 131.24 410.592 131.225C410.549 131.21 410.511 131.188 410.478 131.16C410.446 131.132 410.42 131.099 410.402 131.062C410.384 131.025 410.375 130.986 410.375 130.946C410.375 130.906 410.384 130.866 410.401 130.829C410.641 130.3 411.022 129.829 411.513 129.456C412.004 129.082 412.591 128.818 413.223 128.684C413.312 128.674 413.403 128.695 413.476 128.741C413.548 128.788 413.599 128.856 413.616 128.934C413.625 128.972 413.624 129.012 413.615 129.05C413.606 129.088 413.588 129.124 413.562 129.156C413.537 129.188 413.504 129.216 413.466 129.236C413.428 129.257 413.386 129.271 413.342 129.277C412.824 129.396 412.346 129.62 411.947 129.931C411.547 130.243 411.238 130.632 411.044 131.069C411.017 131.113 410.978 131.15 410.93 131.177C410.882 131.204 410.827 131.221 410.77 131.225Z"
        fill="#263238" />
    <path
        d="M424.975 126.965C424.917 126.981 424.854 126.981 424.796 126.965C424.303 126.787 423.769 126.713 423.238 126.75C422.706 126.786 422.192 126.931 421.736 127.174C421.701 127.198 421.66 127.215 421.616 127.225C421.573 127.235 421.527 127.237 421.483 127.231C421.438 127.226 421.396 127.212 421.357 127.191C421.319 127.171 421.286 127.143 421.26 127.111C421.208 127.044 421.188 126.963 421.203 126.883C421.219 126.803 421.269 126.732 421.343 126.684C421.894 126.382 422.52 126.199 423.168 126.15C423.816 126.101 424.468 126.188 425.07 126.403C425.113 126.416 425.153 126.436 425.187 126.462C425.221 126.489 425.249 126.521 425.269 126.557C425.289 126.592 425.3 126.631 425.303 126.671C425.306 126.711 425.299 126.751 425.284 126.788C425.26 126.842 425.22 126.889 425.167 126.924C425.115 126.959 425.052 126.981 424.987 126.986L424.975 126.965Z"
        fill="#263238" />
    <path
        d="M415.807 132.964C416.045 133.548 416.58 133.912 416.997 133.787C417.414 133.662 417.592 133.068 417.354 132.485C417.116 131.902 416.58 131.537 416.164 131.662C415.747 131.787 415.533 132.381 415.807 132.964Z"
        fill="#263238" />
    <path
        d="M423.379 130.652C423.617 131.235 424.153 131.6 424.57 131.464C424.986 131.329 425.165 130.756 424.939 130.163C424.712 129.569 424.165 129.215 423.748 129.35C423.331 129.486 423.141 130.059 423.379 130.652Z"
        fill="#263238" />
    <path d="M423.569 129.434L425.01 128.538C425.01 128.538 424.629 129.892 423.569 129.434Z"
        fill="#263238" />
    <path d="M415.997 131.756L417.438 130.86C417.438 130.86 417.057 132.204 415.997 131.756Z"
        fill="#263238" />
    <path
        d="M367.131 173.957L367.714 173.985C367.989 173.999 368.225 173.814 368.241 173.573L370.334 140.505C370.35 140.263 370.138 140.057 369.863 140.044L369.28 140.015C369.004 140.002 368.768 140.187 368.753 140.428L366.659 173.496C366.644 173.737 366.855 173.944 367.131 173.957Z"
        fill="#263238" />
    <path opacity="0.3"
        d="M367.131 173.957L367.714 173.985C367.989 173.999 368.225 173.814 368.241 173.573L370.334 140.505C370.35 140.263 370.138 140.057 369.863 140.044L369.28 140.015C369.004 140.002 368.768 140.187 368.753 140.428L366.659 173.496C366.644 173.737 366.855 173.944 367.131 173.957Z"
        fill="white" />
    <path
        d="M352.667 146.035L368.729 141.202C366.97 144.74 366.72 148.713 368.026 152.398L352.667 146.035Z"
        fill="#607991" />
    <path
        d="M399.959 210.658C399.959 210.658 414.08 212.345 439.012 209.304C436.894 201.728 436.178 193.905 436.892 186.131C438.083 173.113 441.524 155.189 430.32 155.189C417.557 155.189 399.185 155.866 393.589 160.261C387.993 164.656 407.793 184.111 399.959 210.658Z"
        fill="#845715" />
    <path
        d="M406.007 156.481V154.283C406.004 154.029 406.064 153.778 406.183 153.546C406.301 153.315 406.476 153.108 406.694 152.941C406.912 152.774 407.169 152.65 407.447 152.578C407.726 152.506 408.018 152.487 408.305 152.523C412.045 152.775 415.806 152.487 419.438 151.669C419.94 151.58 420.462 151.657 420.902 151.886C421.343 152.115 421.669 152.48 421.819 152.908L422.605 155.283C422.605 155.283 424.355 158.855 419.343 159.251C410.591 159.928 406.007 156.481 406.007 156.481Z"
        fill="#845715" />
    <path opacity="0.2"
        d="M402.031 179.757C401.602 174.175 398.316 166.76 398.316 166.76L394.161 168.572C397.328 176.633 403.841 189.516 401.185 205.315C401.185 205.242 401.185 205.18 401.185 205.107C403.34 193.494 408.103 190.276 407.746 186.985C407.579 185.069 402.436 184.08 402.031 179.757Z"
        fill="black" />
    <path opacity="0.2"
        d="M422.676 155.72C422.962 156.678 423.2 158.938 419.259 159.251C414.827 159.732 410.338 158.892 406.52 156.866C409.903 159.184 413.962 160.627 418.235 161.032C425.058 161.553 422.676 155.72 422.676 155.72Z"
        fill="black" />
    <path
        d="M375.051 179.539L371.372 173.623L372.491 167.114C372.589 166.555 372.474 165.983 372.165 165.486C371.855 164.989 371.367 164.595 370.777 164.365L368.086 163.323L366.895 161.99C366.618 161.699 366.271 161.465 365.879 161.305C365.487 161.144 365.06 161.061 364.627 161.061C364.194 161.061 363.767 161.144 363.375 161.305C362.983 161.465 362.636 161.699 362.359 161.99L360.763 163.615C360.288 164.106 360.034 164.732 360.049 165.375L360.18 168.895C360.201 169.472 360.444 170.026 360.87 170.468L366.014 175.873L369.491 182.299L375.051 179.539Z"
        fill="#FFB573" />
    <path
        d="M393.589 160.261C393.589 160.261 387.886 160.605 387.302 173.03C386.719 185.454 387.302 190.276 387.302 190.276C387.302 190.276 383.826 187.995 373.967 175.571L367.002 179.622C367.002 179.622 377.718 207.106 390.815 205.034C403.912 202.961 400.102 174.831 400.102 174.831C400.102 174.831 399.292 163.51 393.589 160.261Z"
        fill="#845715" />
    <path
        d="M421.486 141.775C421.842 141.796 422.2 141.796 422.557 141.775C422.611 141.761 422.657 141.729 422.685 141.687C422.714 141.644 422.723 141.594 422.712 141.546C422.701 141.511 422.678 141.479 422.646 141.455C422.614 141.431 422.575 141.415 422.533 141.411C421.633 141.454 420.733 141.313 419.907 140.998C419.08 140.684 418.348 140.204 417.771 139.598C417.731 139.565 417.678 139.546 417.622 139.546C417.566 139.546 417.513 139.565 417.473 139.598C417.439 139.635 417.421 139.681 417.421 139.729C417.421 139.776 417.439 139.822 417.473 139.859C417.965 140.394 418.572 140.838 419.261 141.167C419.949 141.496 420.705 141.703 421.486 141.775Z"
        fill="#263238" />
    <path d="M412.58 132.485L406.889 136.349V137.047L412.937 133.37L412.58 132.485Z" fill="#263238" />
    <path opacity="0.2" d="M412.58 132.485L406.889 136.349V137.047L412.937 133.37L412.58 132.485Z"
        fill="black" />
    <path
        d="M401.376 123.851C401.376 123.851 413.044 112.395 424.808 124.362L420.045 125.299L413.64 122.716L417.926 126.111L411.973 128.538L407.818 125.299L410.354 128.538C409.413 128.91 408.599 129.49 407.991 130.22C407.384 130.95 407.004 131.806 406.889 132.704C406.27 136.005 411.199 146.899 405.043 146.785C398.888 146.67 398.447 134.537 398.447 134.537L401.376 123.851Z"
        fill="#263238" />
    <path
        d="M429.558 129.142C428.939 127.309 427.177 127.528 425.082 128.101C423.877 128.259 422.791 128.823 422.057 129.673L418.866 130.496C417.724 130.13 416.462 130.171 415.354 130.611C413.27 131.142 411.639 131.798 412.258 133.62C412.405 134.055 412.647 134.461 412.973 134.814C413.298 135.167 413.7 135.46 414.155 135.677C414.609 135.894 415.109 136.031 415.624 136.079C416.139 136.127 416.661 136.086 417.158 135.959C417.655 135.831 418.119 135.618 418.522 135.334C418.925 135.049 419.261 134.698 419.509 134.3C419.757 133.902 419.913 133.465 419.969 133.014C420.024 132.564 419.977 132.108 419.831 131.673C419.766 131.473 419.674 131.281 419.557 131.1C419.894 130.899 420.269 130.75 420.664 130.663C421.048 130.552 421.45 130.496 421.855 130.496C421.874 130.708 421.918 130.917 421.986 131.121C422.281 131.999 422.963 132.739 423.882 133.178C424.801 133.616 425.881 133.717 426.885 133.459C427.89 133.201 428.735 132.604 429.237 131.8C429.738 130.997 429.854 130.052 429.558 129.173V129.142Z"
        fill="#263238" />
    <path opacity="0.2"
        d="M429.558 129.142C428.939 127.309 427.177 127.528 425.082 128.101C423.877 128.259 422.791 128.823 422.057 129.673L418.866 130.496C417.724 130.13 416.462 130.171 415.354 130.611C413.27 131.142 411.639 131.798 412.258 133.62C412.405 134.055 412.647 134.461 412.973 134.814C413.298 135.167 413.7 135.46 414.155 135.677C414.609 135.894 415.109 136.031 415.624 136.079C416.139 136.127 416.661 136.086 417.158 135.959C417.655 135.831 418.119 135.618 418.522 135.334C418.925 135.049 419.261 134.698 419.509 134.3C419.757 133.902 419.913 133.465 419.969 133.014C420.024 132.564 419.977 132.108 419.831 131.673C419.766 131.473 419.674 131.281 419.557 131.1C419.894 130.899 420.269 130.75 420.664 130.663C421.048 130.552 421.45 130.496 421.855 130.496C421.874 130.708 421.918 130.917 421.986 131.121C422.281 131.999 422.963 132.739 423.882 133.178C424.801 133.616 425.881 133.717 426.885 133.459C427.89 133.201 428.735 132.604 429.237 131.8C429.738 130.997 429.854 130.052 429.558 129.173V129.142Z"
        fill="black" />
    <path
        d="M485.59 334.468C485.59 334.468 494.401 346.007 486.709 353.339L493.103 365.753C493.598 365.703 494.1 365.741 494.579 365.866C495.057 365.991 495.501 366.199 495.884 366.479C496.267 366.759 496.581 367.103 496.807 367.493C497.033 367.882 497.166 368.307 497.199 368.742L493.627 368.899C493.627 368.899 490.15 368.899 487.471 365.347C484.792 361.796 480.387 356.172 480.637 352.985C480.887 349.798 479.791 346.132 473.933 340.383C468.076 334.634 482.458 331.479 485.59 334.468Z"
        fill="#845715" />
    <path opacity="0.3"
        d="M485.59 334.468C485.59 334.468 494.401 346.007 486.709 353.339L493.103 365.753C493.598 365.703 494.1 365.741 494.579 365.866C495.057 365.991 495.501 366.199 495.884 366.479C496.267 366.759 496.581 367.103 496.807 367.493C497.033 367.882 497.166 368.307 497.199 368.742L493.627 368.899C493.627 368.899 490.15 368.899 487.471 365.347C484.792 361.796 480.387 356.172 480.637 352.985C480.887 349.798 479.791 346.132 473.933 340.383C468.076 334.634 482.458 331.479 485.59 334.468Z"
        fill="white" />
    <path
        d="M465.385 320.429C461.408 322.182 457.893 324.64 455.062 327.646C449.478 333.895 433.88 338.904 426.772 325.563C426.772 325.563 423.093 336.634 435.857 338.686C435.857 338.686 433.249 340.435 428.653 339.019C428.653 339.019 434.226 344.82 447.382 338.165C446.387 339.66 444.968 340.904 443.263 341.779C443.263 341.779 449.025 341.518 453.978 335.603C457.919 330.885 463.92 324.418 463.92 324.418L465.385 320.429Z"
        fill="#845715" />
    <path opacity="0.5"
        d="M465.385 320.429C461.408 322.182 457.893 324.64 455.062 327.646C449.478 333.895 433.88 338.904 426.772 325.563C426.772 325.563 423.093 336.634 435.857 338.686C435.857 338.686 433.249 340.435 428.653 339.019C428.653 339.019 434.226 344.82 447.382 338.165C446.387 339.66 444.968 340.904 443.263 341.779C443.263 341.779 449.025 341.518 453.978 335.603C457.919 330.885 463.92 324.418 463.92 324.418L465.385 320.429Z"
        fill="white" />
    <path
        d="M523.762 331.718L524.571 345.486L520.547 351.173L512.105 352.318C512.41 351.045 513.169 349.888 514.273 349.016C515.377 348.144 516.77 347.601 518.249 347.465L518.678 345.497L515.106 333.728L523.762 331.718Z"
        fill="#845715" />
    <path opacity="0.3"
        d="M523.762 331.718L524.571 345.486L520.547 351.173L512.105 352.318C512.41 351.045 513.169 349.888 514.273 349.016C515.377 348.144 516.77 347.601 518.249 347.465L518.678 345.497L515.106 333.728L523.762 331.718Z"
        fill="white" />
    <path
        d="M460.991 327.708C461.586 323.157 462.98 318.773 478.541 316.731C494.103 314.69 502.937 313.607 509.176 310.962C515.415 308.316 520.094 302.515 527.036 308.462C533.977 314.409 536.061 330.062 524.655 335.999C513.248 341.935 487.495 336.165 478.065 337.103C468.635 338.04 459.848 336.457 460.991 327.708Z"
        fill="#845715" />
    <path opacity="0.6"
        d="M460.991 327.708C461.586 323.157 462.98 318.773 478.541 316.731C494.103 314.69 502.937 313.607 509.176 310.962C515.415 308.316 520.094 302.515 527.036 308.462C533.977 314.409 536.061 330.062 524.655 335.999C513.248 341.935 487.495 336.165 478.065 337.103C468.635 338.04 459.848 336.457 460.991 327.708Z"
        fill="white" />
    <path
        d="M515.88 307.358C515.88 307.358 525.631 297.225 528.87 293.017C532.108 288.81 543.896 294.236 544.503 297.131C545.11 300.026 540.014 320.043 529.894 331.447C519.773 342.851 515.88 307.358 515.88 307.358Z"
        fill="#845715" />
    <path opacity="0.6"
        d="M515.88 307.358C515.88 307.358 525.631 297.225 528.87 293.017C532.108 288.81 543.896 294.236 544.503 297.131C545.11 300.026 540.014 320.043 529.894 331.447C519.773 342.851 515.88 307.358 515.88 307.358Z"
        fill="white" />
    <path opacity="0.2"
        d="M491.055 337.655C477.494 335.926 478.161 331.968 478.161 331.968L475.279 331.239L473.398 333.666L473.243 337.332C474.834 337.337 476.425 337.26 478.006 337.103C481.018 336.801 485.709 337.186 491.103 337.655H491.055Z"
        fill="black" />
    <path
        d="M478.398 330.729C478.398 330.729 475.708 346.601 468.707 350.85C464.67 353.297 463.587 359.348 463.123 363.92C462.789 367.295 465.504 368.899 460.527 369.638C460.527 369.638 459.503 359.796 457.634 354.672C457.42 354.094 457.383 353.478 457.527 352.884C457.672 352.29 457.991 351.739 458.455 351.287C460.515 349.277 463.658 345.58 462.968 342.227C461.944 337.321 459.527 333.999 460.991 327.709C462.456 321.418 477.446 326.959 478.398 330.729Z"
        fill="#845715" />
    <path opacity="0.6"
        d="M478.398 330.729C478.398 330.729 475.708 346.601 468.707 350.85C464.67 353.297 463.587 359.348 463.123 363.92C462.789 367.295 465.504 368.899 460.527 369.638C460.527 369.638 459.503 359.796 457.634 354.672C457.42 354.094 457.383 353.478 457.527 352.884C457.672 352.29 457.991 351.739 458.455 351.287C460.515 349.277 463.658 345.58 462.968 342.227C461.944 337.321 459.527 333.999 460.991 327.709C462.456 321.418 477.446 326.959 478.398 330.729Z"
        fill="white" />
    <path opacity="0.2"
        d="M524.416 327.313L520.106 326.688L518.547 328.271C518.547 328.271 523.857 336.603 513.701 338.55C517.503 338.415 521.224 337.543 524.595 335.999C525.496 335.533 526.338 334.985 527.107 334.363L524.416 327.313Z"
        fill="black" />
    <path
        d="M517.678 327.188C517.678 327.188 526.905 339.196 532.656 339.873C538.407 340.55 546.944 337.071 546.944 337.071C546.944 337.071 549.956 340.539 554.409 339.061L550.385 334.832L544.265 332.822H535.359C535.359 332.822 533.085 321.876 532.513 319.231C531.942 316.586 516.178 325.334 517.678 327.188Z"
        fill="#845715" />
    <path opacity="0.6"
        d="M517.678 327.188C517.678 327.188 526.905 339.196 532.656 339.873C538.407 340.55 546.944 337.071 546.944 337.071C546.944 337.071 549.956 340.539 554.409 339.061L550.385 334.832L544.265 332.822H535.359C535.359 332.822 533.085 321.876 532.513 319.231C531.942 316.586 516.178 325.334 517.678 327.188Z"
        fill="white" />
    <path opacity="0.2"
        d="M540.99 303.286L532.941 306.192L529.941 309.316C529.941 309.316 534.418 313.565 540.871 312.034C541.871 309.358 542.669 306.827 543.252 304.63C542.541 304.129 541.784 303.68 540.99 303.286Z"
        fill="black" />
    <path
        d="M527 293.35C527 293.35 531.942 288.424 537.573 287.924C543.205 287.425 545.717 290.726 547.598 290.518C549.48 290.309 555.576 287.977 557.124 289.476C558.671 290.976 559.171 296.944 556.754 297.943C556.754 297.943 556.445 302.526 548.11 303.921C548.11 303.921 542.157 311.305 534.871 310.868C527.584 310.431 519.333 301.068 527 293.35Z"
        fill="#845715" />
    <path opacity="0.6"
        d="M527 293.35C527 293.35 531.942 288.424 537.573 287.924C543.205 287.425 545.717 290.726 547.598 290.518C549.48 290.309 555.576 287.977 557.124 289.476C558.671 290.976 559.171 296.944 556.754 297.943C556.754 297.943 556.445 302.526 548.11 303.921C548.11 303.921 542.157 311.305 534.871 310.868C527.584 310.431 519.333 301.068 527 293.35Z"
        fill="white" />
    <path
        d="M528.643 293.486C528.835 293.375 529.054 293.306 529.283 293.284C529.511 293.262 529.742 293.289 529.957 293.361C530.171 293.434 530.363 293.55 530.515 293.7C530.668 293.85 530.777 294.031 530.834 294.225C531.858 297.912 533.513 306.65 527.084 309.222C518.856 312.514 522.773 298.756 524.988 296.048C526.074 295.059 527.303 294.197 528.643 293.486Z"
        fill="#845715" />
    <path opacity="0.3"
        d="M528.643 293.486C528.835 293.375 529.054 293.306 529.283 293.284C529.511 293.262 529.742 293.289 529.957 293.361C530.171 293.434 530.363 293.55 530.515 293.7C530.668 293.85 530.777 294.031 530.834 294.225C531.858 297.912 533.513 306.65 527.084 309.222C518.856 312.514 522.773 298.756 524.988 296.048C526.074 295.059 527.303 294.197 528.643 293.486Z"
        fill="white" />
    <path
        d="M515.629 307.108C517.219 311.003 519.791 314.535 523.155 317.442C526.519 320.348 530.588 322.554 535.061 323.897C535.334 323.979 535.632 323.971 535.899 323.875C536.166 323.78 536.384 323.602 536.513 323.376L537.287 322.095C537.369 321.962 537.416 321.814 537.427 321.663C537.437 321.512 537.409 321.361 537.346 321.22C537.282 321.08 537.184 320.953 537.059 320.848C536.934 320.744 536.784 320.665 536.62 320.616C532.537 319.363 528.801 317.373 525.655 314.775C522.508 312.177 520.022 309.029 518.356 305.536C518.293 305.41 518.194 305.3 518.07 305.216C517.946 305.132 517.799 305.077 517.644 305.055C517.489 305.033 517.33 305.046 517.182 305.092C517.034 305.137 516.901 305.215 516.796 305.317L515.82 306.285C515.705 306.394 515.627 306.529 515.594 306.674C515.56 306.819 515.572 306.969 515.629 307.108Z"
        fill="#263238" />
    <path opacity="0.3"
        d="M515.629 307.108C517.219 311.003 519.791 314.535 523.155 317.442C526.519 320.348 530.588 322.554 535.061 323.897C535.334 323.979 535.632 323.971 535.899 323.875C536.166 323.78 536.384 323.602 536.513 323.376L537.287 322.095C537.369 321.962 537.416 321.814 537.427 321.663C537.437 321.512 537.409 321.361 537.346 321.22C537.282 321.08 537.184 320.953 537.059 320.848C536.934 320.744 536.784 320.665 536.62 320.616C532.537 319.363 528.801 317.373 525.655 314.775C522.508 312.177 520.022 309.029 518.356 305.536C518.293 305.41 518.194 305.3 518.07 305.216C517.946 305.132 517.799 305.077 517.644 305.055C517.489 305.033 517.33 305.046 517.182 305.092C517.034 305.137 516.901 305.215 516.796 305.317L515.82 306.285C515.705 306.394 515.627 306.529 515.594 306.674C515.56 306.819 515.572 306.969 515.629 307.108Z"
        fill="white" />
    <path
        d="M540.074 293.132C540.49 293.757 541.205 294.069 541.681 293.83C542.157 293.59 542.181 292.882 541.752 292.267C541.324 291.653 540.633 291.33 540.157 291.57C539.681 291.809 539.645 292.507 540.074 293.132Z"
        fill="#263238" />
    <path
        d="M539.359 289.403C539.369 289.474 539.353 289.546 539.315 289.609C539.277 289.673 539.217 289.724 539.145 289.757C538.621 290.065 538.176 290.465 537.838 290.931C537.5 291.397 537.276 291.92 537.18 292.465C537.166 292.555 537.111 292.636 537.029 292.69C536.946 292.745 536.842 292.769 536.74 292.757C536.69 292.75 536.641 292.735 536.598 292.713C536.554 292.69 536.516 292.659 536.486 292.623C536.456 292.587 536.435 292.547 536.423 292.503C536.412 292.46 536.41 292.415 536.418 292.371C536.418 292.288 536.835 290.007 538.8 289.153C538.891 289.113 538.998 289.105 539.096 289.133C539.194 289.16 539.275 289.22 539.324 289.299C539.34 289.332 539.352 289.367 539.359 289.403Z"
        fill="#845715" />
    <path opacity="0.3"
        d="M539.359 289.403C539.369 289.474 539.353 289.546 539.315 289.609C539.277 289.673 539.217 289.724 539.145 289.757C538.621 290.065 538.176 290.465 537.838 290.931C537.5 291.397 537.276 291.92 537.18 292.465C537.166 292.555 537.111 292.636 537.029 292.69C536.946 292.745 536.842 292.769 536.74 292.757C536.69 292.75 536.641 292.735 536.598 292.713C536.554 292.69 536.516 292.659 536.486 292.623C536.456 292.587 536.435 292.547 536.423 292.503C536.412 292.46 536.41 292.415 536.418 292.371C536.418 292.288 536.835 290.007 538.8 289.153C538.891 289.113 538.998 289.105 539.096 289.133C539.194 289.16 539.275 289.22 539.324 289.299C539.34 289.332 539.352 289.367 539.359 289.403Z"
        fill="white" />
    <path
        d="M551.73 295.86C551.809 295.85 551.891 295.862 551.962 295.896C552.033 295.93 552.089 295.983 552.122 296.048C552.476 296.504 552.934 296.892 553.466 297.188C553.999 297.484 554.595 297.68 555.218 297.766C555.32 297.779 555.413 297.827 555.475 297.899C555.538 297.971 555.565 298.062 555.551 298.152C555.534 298.239 555.478 298.318 555.396 298.37C555.314 298.422 555.212 298.445 555.111 298.433C555.016 298.433 552.42 298.058 551.432 296.35C551.389 296.269 551.382 296.177 551.413 296.092C551.443 296.007 551.51 295.936 551.599 295.892C551.638 295.871 551.683 295.86 551.73 295.86Z"
        fill="#845715" />
    <path
        d="M553.004 289.257C553.542 290.062 554.315 290.726 555.242 291.184C556.14 291.643 557.156 291.894 558.195 291.913C558.068 291.045 557.696 290.218 557.112 289.507C556.421 288.81 554.766 288.914 553.004 289.257Z"
        fill="#263238" />
    <path
        d="M518.559 306.358L486.602 246.484L484.149 247.526L516.058 307.879C516.12 307.994 516.214 308.094 516.33 308.17C516.447 308.246 516.583 308.295 516.727 308.314C516.871 308.332 517.018 308.319 517.155 308.276C517.291 308.233 517.414 308.161 517.511 308.066L518.416 307.192C518.528 307.079 518.601 306.941 518.627 306.793C518.652 306.646 518.629 306.495 518.559 306.358Z"
        fill="#263238" />
    <path
        d="M475.993 232.498C467.802 236.913 480.756 246.422 484.328 248.859C484.588 249.039 484.896 249.158 485.223 249.204C485.551 249.249 485.886 249.22 486.197 249.119H486.34C486.754 248.985 487.104 248.732 487.331 248.4C487.559 248.069 487.65 247.68 487.59 247.297C486.84 242.662 483.971 228.196 475.993 232.498ZM484.328 246.724C484.152 246.781 483.962 246.798 483.776 246.772C483.591 246.747 483.416 246.68 483.268 246.578C480.887 245.006 471.362 238.049 477.243 234.841C483.125 231.633 485.054 242.537 485.495 245.558C485.534 245.777 485.484 246.001 485.353 246.192C485.223 246.382 485.02 246.526 484.78 246.599L484.328 246.724Z"
        fill="#263238" />
    <path opacity="0.3"
        d="M475.993 232.498C467.802 236.913 480.756 246.422 484.328 248.859C484.588 249.039 484.896 249.158 485.223 249.204C485.551 249.249 485.886 249.22 486.197 249.119H486.34C486.754 248.985 487.104 248.732 487.331 248.4C487.559 248.069 487.65 247.68 487.59 247.297C486.84 242.662 483.971 228.196 475.993 232.498ZM484.328 246.724C484.152 246.781 483.962 246.798 483.776 246.772C483.591 246.747 483.416 246.68 483.268 246.578C480.887 245.006 471.362 238.049 477.243 234.841C483.125 231.633 485.054 242.537 485.495 245.558C485.534 245.777 485.484 246.001 485.353 246.192C485.223 246.382 485.02 246.526 484.78 246.599L484.328 246.724Z"
        fill="white" />
    <path d="M146.52 340.644L147.508 360.025L159.307 360.275L159.855 340.238L146.52 340.644Z"
        fill="#FF8B7B" />
    <path opacity="0.1"
        d="M147.068 351.246C151.189 351.911 155.405 351.999 159.558 351.506L159.784 343.081L153.152 341.706L146.58 341.81L147.068 351.246Z"
        fill="black" />
    <path
        d="M160.415 357.474C160.36 357.465 160.309 357.441 160.27 357.406C160.232 357.37 160.207 357.325 160.201 357.276C160.189 357.229 160.196 357.18 160.22 357.137C160.243 357.093 160.283 357.058 160.332 357.036C160.498 356.953 164.439 355.006 166.285 355.464C166.637 355.546 166.94 355.743 167.13 356.016C167.254 356.168 167.321 356.35 167.321 356.536C167.321 356.723 167.254 356.905 167.13 357.057C166.654 357.578 165.213 357.797 163.808 357.786C162.669 357.769 161.533 357.664 160.415 357.474ZM161.272 357.161C163.368 357.401 166.213 357.401 166.737 356.755C166.821 356.682 166.892 356.536 166.737 356.245C166.683 356.16 166.608 356.087 166.517 356.031C166.427 355.975 166.323 355.938 166.213 355.922C166.051 355.881 165.882 355.86 165.713 355.86C164.151 356.039 162.643 356.481 161.272 357.161Z"
        fill="#845715" />
    <path
        d="M160.272 357.453C160.231 357.433 160.197 357.402 160.176 357.365C160.155 357.328 160.147 357.286 160.153 357.245C160.153 357.12 160.486 354.464 161.927 353.443C162.132 353.293 162.369 353.181 162.625 353.113C162.881 353.045 163.149 353.023 163.415 353.047C164.153 353.12 164.38 353.443 164.403 353.714C164.642 354.818 161.915 356.943 160.558 357.463H160.451C160.422 357.475 160.391 357.479 160.36 357.478C160.329 357.476 160.298 357.467 160.272 357.453ZM163.237 353.485C162.898 353.484 162.569 353.588 162.308 353.777C161.462 354.624 160.934 355.678 160.796 356.797C162.189 356.078 163.975 354.412 163.915 353.745C163.915 353.683 163.915 353.516 163.391 353.475L163.237 353.485Z"
        fill="#845715" />
    <path
        d="M159.272 356.089L146.973 356.026C146.747 356.023 146.528 356.088 146.35 356.209C146.173 356.33 146.048 356.501 145.996 356.693L143.71 365.441C143.612 365.808 143.682 366.194 143.904 366.517C144.127 366.84 144.484 367.074 144.901 367.17C145.016 367.179 145.131 367.179 145.246 367.17C149.687 367.17 153.581 366.93 159.153 366.962C165.666 366.962 164.011 367.67 171.666 367.805C176.286 367.878 177.155 363.296 175.238 363.056C166.285 362.015 165.368 359.661 161.939 356.807C161.179 356.293 160.231 356.038 159.272 356.089Z"
        fill="#263238" />
    <path
        d="M119.576 198.389C119.576 198.389 162.046 253.244 163.76 264.929C165.058 273.802 161.462 348.58 161.462 348.58C156.039 348.986 150.581 348.871 145.186 348.236C145.186 348.236 142.341 312.951 140.162 289.497C139.233 279.468 139.436 271.615 138.388 269.543C134.923 262.617 100.371 231.008 96.2392 218.281C92.1077 205.555 93.6912 198.608 93.6912 198.608L119.576 198.389Z"
        fill="#845715" />
    <path opacity="0.3"
        d="M119.576 198.389C119.576 198.389 162.046 253.244 163.76 264.929C165.058 273.802 161.462 348.58 161.462 348.58C156.039 348.986 150.581 348.871 145.186 348.236C145.186 348.236 142.341 312.951 140.162 289.497C139.233 279.468 139.436 271.615 138.388 269.543C134.923 262.617 100.371 231.008 96.2392 218.281C92.1077 205.555 93.6912 198.608 93.6912 198.608L119.576 198.389Z"
        fill="white" />
    <path opacity="0.2"
        d="M121.909 250.765C111.194 239.194 108.026 207.554 108.026 207.554L98.6443 215.126L97.918 221.916C102.264 229.602 112.682 240.923 121.909 250.765Z"
        fill="black" />
    <path
        d="M108.848 200.358C108.848 200.358 110.765 269.095 102.633 292.059C102.354 292.792 101.904 293.466 101.311 294.039C100.719 294.612 99.9967 295.071 99.1909 295.387C98.3852 295.703 97.5132 295.87 96.63 295.876C95.7469 295.882 94.872 295.728 94.0605 295.423L83.9639 291.83C83.2056 291.582 82.513 291.202 81.9285 290.712C81.344 290.222 80.8799 289.633 80.5645 288.981C80.2492 288.329 80.0892 287.627 80.0943 286.919C80.0994 286.211 80.2696 285.511 80.5944 284.863L82.1541 281.801C82.1541 281.801 79.4038 246.599 78.1893 234.789C76.9749 222.979 72.0813 214.574 78.1893 198.733L108.848 200.358Z"
        fill="#845715" />
    <path opacity="0.3"
        d="M108.848 200.358C108.848 200.358 110.765 269.095 102.633 292.059C102.354 292.792 101.904 293.466 101.311 294.039C100.719 294.612 99.9967 295.071 99.1909 295.387C98.3852 295.703 97.5132 295.87 96.63 295.876C95.7469 295.882 94.872 295.728 94.0605 295.423L83.9639 291.83C83.2056 291.582 82.513 291.202 81.9285 290.712C81.344 290.222 80.8799 289.633 80.5645 288.981C80.2492 288.329 80.0892 287.627 80.0943 286.919C80.0994 286.211 80.2696 285.511 80.5944 284.863L82.1541 281.801C82.1541 281.801 79.4038 246.599 78.1893 234.789C76.9749 222.979 72.0813 214.574 78.1893 198.733L108.848 200.358Z"
        fill="white" />
    <path d="M82.4163 293.705L77.6895 304.786L83.6307 307.785L91.1794 298.152L82.4163 293.705Z"
        fill="#263238" />
    <path opacity="0.6"
        d="M82.4163 293.705L77.6895 304.786L83.6307 307.785L91.1794 298.152L82.4163 293.705Z"
        fill="white" />
    <path
        d="M71.9145 362.556C60.1034 361.515 45.8991 359.359 47.2207 355.516C49.4591 349.007 62.699 341.602 67.1639 336.499C72.6289 330.312 81.9039 308.014 81.9039 308.014C82.2181 307.441 82.7789 307 83.4638 306.787C84.1488 306.574 84.9021 306.608 85.5592 306.879L74.4863 303.13L69.6047 310.576L57.6983 334.853L48.1732 342.143L39.1601 351.069L37.1836 355.953L40.0768 358.203L53.662 362.254L65.9494 363.41L71.9145 362.556Z"
        fill="#263238" />
    <path opacity="0.1"
        d="M71.9145 362.556C60.1034 361.515 45.8991 359.359 47.2207 355.516C49.4591 349.007 62.699 341.602 67.1639 336.499C72.6289 330.312 81.9039 308.014 81.9039 308.014C82.2181 307.441 82.7789 307 83.4638 306.787C84.1488 306.574 84.9021 306.608 85.5592 306.879L74.4863 303.13L69.6047 310.576L57.6983 334.853L48.1732 342.143L39.1601 351.069L37.1836 355.953L40.0768 358.203L53.662 362.254L65.9494 363.41L71.9145 362.556Z"
        fill="white" />
    <path
        d="M63.104 364.014L72.129 363.379C72.129 363.379 73.3197 365.462 68.2476 365.983C63.1754 366.503 63.104 364.014 63.104 364.014Z"
        fill="#263238" />
    <path opacity="0.2"
        d="M63.104 364.014L72.129 363.379C72.129 363.379 73.3197 365.462 68.2476 365.983C63.1754 366.503 63.104 364.014 63.104 364.014Z"
        fill="black" />
    <path
        d="M79.2964 288.122L100.383 295.486C100.721 295.596 101.025 295.776 101.269 296.008C101.513 296.241 101.692 296.521 101.789 296.826C101.886 297.13 101.9 297.45 101.83 297.76C101.759 298.07 101.606 298.361 101.383 298.61C99.8706 300.235 96.0963 301.589 86.7498 298.516C76.7127 295.215 75.6173 291.674 76.1769 289.508C76.2565 289.226 76.4046 288.962 76.6111 288.735C76.8177 288.507 77.0779 288.321 77.374 288.19C77.67 288.058 77.995 287.984 78.3268 287.973C78.6585 287.961 78.9892 288.012 79.2964 288.122Z"
        fill="#263238" />
    <path opacity="0.7"
        d="M79.2964 288.122L100.383 295.486C100.721 295.596 101.025 295.776 101.269 296.008C101.513 296.241 101.692 296.521 101.789 296.826C101.886 297.13 101.9 297.45 101.83 297.76C101.759 298.07 101.606 298.361 101.383 298.61C99.8706 300.235 96.0963 301.589 86.7498 298.516C76.7127 295.215 75.6173 291.674 76.1769 289.508C76.2565 289.226 76.4046 288.962 76.6111 288.735C76.8177 288.507 77.0779 288.321 77.374 288.19C77.67 288.058 77.995 287.984 78.3268 287.973C78.6585 287.961 78.9892 288.012 79.2964 288.122Z"
        fill="white" />
    <path
        d="M75.0102 362.327C75.1878 362.337 75.356 362.4 75.4867 362.505C75.6174 362.611 75.7024 362.753 75.7276 362.907C75.7527 363.061 75.7165 363.218 75.6248 363.351C75.5332 363.485 75.3918 363.586 75.2245 363.639C61.5203 367.597 32.4449 361.067 35.2667 354.266C38.3267 346.903 50.745 339.561 55.2099 334.228C61.0917 327.302 71.1406 302.672 71.1406 302.672C71.2972 302.375 71.5219 302.109 71.8008 301.891C72.0797 301.673 72.4069 301.508 72.762 301.405C73.1172 301.303 73.4926 301.265 73.865 301.295C74.2374 301.325 74.5989 301.421 74.9269 301.578L89.2979 308.275C89.4645 308.349 89.6122 308.452 89.7319 308.578C89.8517 308.704 89.941 308.849 89.9944 309.006C90.0478 309.163 90.0643 309.328 90.0428 309.49C90.0213 309.653 89.9623 309.81 89.8694 309.952C89.6829 310.222 89.3906 310.424 89.0467 310.52C88.7028 310.615 88.3309 310.599 88.0001 310.472L76.6295 305.807C76.3051 305.67 75.9531 305.591 75.5938 305.574C75.2345 305.557 74.8748 305.602 74.5353 305.706C74.1959 305.811 73.8833 305.973 73.6154 306.183C73.3475 306.393 73.1296 306.647 72.9742 306.931C72.9742 306.931 63.6992 329.24 58.2341 335.426C53.7216 340.529 40.5293 347.924 38.2909 354.433C36.4574 359.828 65.2113 361.806 75.0102 362.327Z"
        fill="#263238" />
    <path opacity="0.5"
        d="M75.0102 362.327C75.1878 362.337 75.356 362.4 75.4867 362.505C75.6174 362.611 75.7024 362.753 75.7276 362.907C75.7527 363.061 75.7165 363.218 75.6248 363.351C75.5332 363.485 75.3918 363.586 75.2245 363.639C61.5203 367.597 32.4449 361.067 35.2667 354.266C38.3267 346.903 50.745 339.561 55.2099 334.228C61.0917 327.302 71.1406 302.672 71.1406 302.672C71.2972 302.375 71.5219 302.109 71.8008 301.891C72.0797 301.673 72.4069 301.508 72.762 301.405C73.1172 301.303 73.4926 301.265 73.865 301.295C74.2374 301.325 74.5989 301.421 74.9269 301.578L89.2979 308.275C89.4645 308.349 89.6122 308.452 89.7319 308.578C89.8517 308.704 89.941 308.849 89.9944 309.006C90.0478 309.163 90.0643 309.328 90.0428 309.49C90.0213 309.653 89.9623 309.81 89.8694 309.952C89.6829 310.222 89.3906 310.424 89.0467 310.52C88.7028 310.615 88.3309 310.599 88.0001 310.472L76.6295 305.807C76.3051 305.67 75.9531 305.591 75.5938 305.574C75.2345 305.557 74.8748 305.602 74.5353 305.706C74.1959 305.811 73.8833 305.973 73.6154 306.183C73.3475 306.393 73.1296 306.647 72.9742 306.931C72.9742 306.931 63.6992 329.24 58.2341 335.426C53.7216 340.529 40.5293 347.924 38.2909 354.433C36.4574 359.828 65.2113 361.806 75.0102 362.327Z"
        fill="white" />
    <path
        d="M186.4 162.507L187.061 162.431C187.335 162.4 187.528 162.18 187.492 161.941L182.324 127.325C182.288 127.085 182.037 126.916 181.763 126.947L181.102 127.023C180.828 127.054 180.635 127.274 180.671 127.513L185.839 162.129C185.875 162.369 186.126 162.538 186.4 162.507Z"
        fill="#263238" />
    <path opacity="0.3"
        d="M186.4 162.507L187.061 162.431C187.335 162.4 187.528 162.18 187.492 161.941L182.324 127.325C182.288 127.085 182.037 126.916 181.763 126.947L181.102 127.023C180.828 127.054 180.635 127.274 180.671 127.513L185.839 162.129C185.875 162.369 186.126 162.538 186.4 162.507Z"
        fill="white" />
    <path
        d="M165.272 136.078L180.822 128.351C179.775 132.306 180.396 136.46 182.572 140.046L165.272 136.078Z"
        fill="#607991" />
    <path
        d="M145.15 159.345C145.15 159.345 152.473 170.374 154.914 170.916C157.354 171.457 177.702 159.345 177.702 159.345L179.131 152.95C179.189 152.684 179.332 152.437 179.542 152.239C179.753 152.04 180.023 151.897 180.322 151.825L183.572 151.148L187.228 148.087C187.387 147.95 187.576 147.843 187.784 147.772C187.991 147.702 188.213 147.669 188.436 147.676C188.659 147.683 188.878 147.729 189.079 147.812C189.281 147.895 189.461 148.013 189.609 148.159L189.954 148.503C190.189 148.72 190.335 148.998 190.371 149.295L191.49 157.762C191.516 157.98 191.488 158.2 191.407 158.408L189.823 162.271C189.724 162.515 189.55 162.731 189.322 162.896C189.093 163.061 188.818 163.169 188.525 163.209L181.56 164.146C181.56 164.146 162.224 182.663 153.89 182.663C145.555 182.663 134.982 167.864 134.982 167.864L145.15 159.345Z"
        fill="#FF8B7B" />
    <path
        d="M123.826 138.203C129.293 141.067 134.191 144.69 138.328 148.93C143.46 154.137 149.044 162.813 149.044 162.813C149.044 162.813 142.329 168.739 135.947 170.582L121.754 154.419C121.754 154.419 119.064 142.338 123.826 138.203Z"
        fill="#845715" />
    <path opacity="0.2"
        d="M132.482 166.635C129.982 163.792 131.161 149.899 131.161 149.899L129.78 146.618L125.362 147.233L122.255 152.367L122.731 155.554L132.482 166.635Z"
        fill="black" />
    <path
        d="M75.4507 204.69C75.4507 204.69 70.8668 139.817 92.8698 134.204C114.873 128.59 134.995 143.285 132.244 147.555C129.494 151.825 118.921 191.787 125.839 204.69C125.815 204.69 106.419 212.46 75.4507 204.69Z"
        fill="#845715" />
    <path
        d="M78.9035 157.314C78.9035 157.314 66.3899 163.865 65.8065 166.01C65.2231 168.156 78.1296 184.757 78.1296 184.757L86.6784 186.985C86.9849 187.035 87.2692 187.158 87.4988 187.343C87.7284 187.527 87.8939 187.764 87.9762 188.027L88.7858 190.86L92.3577 193.984C92.5191 194.118 92.6476 194.28 92.7354 194.459C92.8232 194.638 92.8685 194.831 92.8685 195.026C92.8685 195.22 92.8232 195.413 92.7354 195.592C92.6476 195.771 92.5191 195.933 92.3577 196.067L91.9767 196.379C91.7259 196.581 91.4095 196.708 91.0718 196.744L81.4039 197.785C81.1556 197.817 80.9024 197.795 80.6657 197.723L76.2008 196.432C75.9207 196.351 75.6714 196.204 75.4803 196.007C75.2892 195.811 75.1636 195.572 75.1173 195.317L73.9267 189.235C73.9267 189.235 52.4952 172.571 52.3761 165.281C52.2571 157.991 69.045 148.555 69.045 148.555L78.9035 157.314Z"
        fill="#FF8B7B" />
    <path opacity="0.2"
        d="M96.5489 144.462C100.026 132.204 86.4881 147.587 86.4881 147.587L79.5943 151.211C78.3233 155.522 77.3807 159.902 76.7725 164.323C81.404 162.063 93.6914 154.585 96.5489 144.462Z"
        fill="black" />
    <path
        d="M120.6 142.681C120.656 142.578 120.7 142.47 120.731 142.358C120.731 142.254 120.731 142.14 120.814 142.036C120.82 141.945 120.82 141.855 120.814 141.765C120.814 141.661 120.814 141.556 120.814 141.452V141.317C120.814 141.088 120.814 140.848 120.814 140.609V140.598C120.546 139.033 119.987 137.517 119.159 136.11L118.171 135.745C118.102 133.457 118.86 131.208 120.338 129.319L111.813 117.311C111.218 121.81 109.598 129.09 106.193 133.141C105.181 133.068 104.145 133.006 103.085 133.006C103.347 133.725 103.693 134.599 104.145 135.537L104.324 135.912C104.443 136.12 104.55 136.339 104.669 136.557L104.943 137.057L105.181 137.432C105.276 137.588 105.371 137.745 105.479 137.901L105.729 138.276L106.086 138.776L106.336 139.109C106.526 139.349 106.717 139.588 106.919 139.817L107.098 140.015C107.3 140.244 107.515 140.473 107.741 140.692C107.826 140.784 107.917 140.871 108.015 140.952C108.193 141.119 108.372 141.286 108.562 141.442L108.884 141.702C109.086 141.869 109.289 142.015 109.503 142.16L109.813 142.379C110.128 142.595 110.458 142.793 110.801 142.973C111.136 143.158 111.486 143.322 111.849 143.462L112.206 143.598C112.468 143.702 112.742 143.796 113.015 143.879L113.444 144.004C113.73 144.077 114.027 144.139 114.325 144.191L114.73 144.264C115.178 144.34 115.632 144.388 116.087 144.41C116.436 144.426 116.786 144.426 117.135 144.41H117.349C117.634 144.39 117.917 144.352 118.195 144.295H118.314C118.525 144.247 118.732 144.185 118.933 144.108H119.076C119.268 144.029 119.451 143.935 119.623 143.827L119.742 143.733C119.866 143.644 119.982 143.547 120.088 143.441L120.171 143.348C120.284 143.23 120.38 143.101 120.457 142.962C120.552 142.785 120.576 142.681 120.6 142.681Z"
        fill="#FF8B7B" />
    <path opacity="0.2"
        d="M115.301 122.175L120.385 129.257C119.767 130.155 119.241 131.099 118.814 132.079C117.377 131.419 116.146 130.462 115.226 129.291C114.307 128.121 113.728 126.772 113.539 125.362C113.432 123.643 114.563 122.164 115.301 122.175Z"
        fill="black" />
    <path
        d="M126.529 116.488C122.076 111.5 121.66 104.178 122.755 102.949C123.85 101.72 134.054 102.366 135.042 103.366C140.055 108.219 132.804 114.416 132.804 114.416L133.876 117.634L126.529 116.488Z"
        fill="#263238" />
    <path
        d="M112.218 110.76C111.373 118.384 110.444 122.8 114.111 127.268C119.6 134.006 130.875 132.006 134.28 124.778C137.364 118.228 138.198 106.896 130.304 102.731C128.569 101.801 126.592 101.276 124.56 101.205C122.528 101.134 120.509 101.519 118.696 102.325C116.882 103.13 115.335 104.328 114.201 105.804C113.067 107.281 112.384 108.987 112.218 110.76Z"
        fill="#FF8B7B" />
    <path
        d="M125.315 114.811C125.208 115.436 125.481 115.978 125.946 116.04C126.41 116.103 126.862 115.665 126.97 114.999C127.077 114.332 126.803 113.843 126.339 113.78C125.874 113.718 125.422 114.207 125.315 114.811Z"
        fill="#263238" />
    <path
        d="M133.244 115.915C133.137 116.519 133.411 117.071 133.875 117.134C134.34 117.196 134.792 116.749 134.899 116.145C135.006 115.54 134.733 114.978 134.268 114.916C133.804 114.853 133.352 115.301 133.244 115.915Z"
        fill="#263238" />
    <path
        d="M130.256 115.738C130.742 117.728 131.544 119.649 132.637 121.446C132.102 121.681 131.515 121.811 130.917 121.827C130.318 121.843 129.723 121.745 129.172 121.539L130.256 115.738Z"
        fill="#FF5652" />
    <path
        d="M123.112 111.562C123.04 111.549 122.972 111.524 122.91 111.489C122.835 111.418 122.794 111.325 122.794 111.229C122.794 111.132 122.835 111.04 122.91 110.968C123.372 110.564 123.935 110.259 124.555 110.078C125.175 109.898 125.835 109.846 126.482 109.927C126.536 109.937 126.587 109.956 126.633 109.984C126.678 110.011 126.717 110.046 126.747 110.087C126.777 110.127 126.798 110.173 126.807 110.221C126.817 110.268 126.815 110.317 126.803 110.364C126.777 110.459 126.711 110.541 126.618 110.593C126.525 110.646 126.412 110.664 126.303 110.646C125.785 110.576 125.256 110.615 124.759 110.76C124.262 110.905 123.812 111.151 123.446 111.479C123.4 111.513 123.347 111.539 123.29 111.553C123.232 111.568 123.171 111.571 123.112 111.562Z"
        fill="#263238" />
    <path
        d="M136.84 113.52C136.771 113.505 136.708 113.474 136.658 113.43C136.607 113.386 136.572 113.331 136.554 113.27C136.416 112.832 136.162 112.428 135.813 112.091C135.463 111.755 135.028 111.495 134.542 111.333C134.435 111.305 134.344 111.242 134.291 111.156C134.237 111.07 134.225 110.969 134.256 110.875C134.288 110.781 134.361 110.702 134.459 110.655C134.557 110.608 134.673 110.597 134.78 110.625C135.405 110.822 135.967 111.147 136.418 111.573C136.87 111.998 137.198 112.513 137.376 113.072C137.393 113.117 137.399 113.164 137.395 113.21C137.391 113.257 137.376 113.302 137.352 113.344C137.327 113.386 137.294 113.423 137.253 113.453C137.212 113.483 137.165 113.506 137.114 113.52C137.071 113.537 137.024 113.546 136.977 113.546C136.93 113.546 136.883 113.537 136.84 113.52Z"
        fill="#263238" />
    <path
        d="M117.552 103.668C117.552 103.668 146.389 109.167 139.65 91.2223C139.65 91.2223 137.447 97.5752 123.66 94.5237C112.158 91.9617 106.145 94.8466 107.622 99.1583C109.098 103.47 117.552 103.668 117.552 103.668Z"
        fill="#263238" />
    <path
        d="M114.027 117.467C114.027 117.467 117.599 117.353 116.063 114.551C114.528 111.75 114.778 109.49 117.528 108.396C120.278 107.303 118.576 102.147 118.576 102.147L109.205 100.179C109.205 100.179 100.311 102.002 108.765 115.051L114.027 117.467Z"
        fill="#263238" />
    <path
        d="M106.729 117.217C107.599 118.981 109.229 120.373 111.265 121.092C113.992 122.018 115.635 119.967 115.123 117.582C114.671 115.499 112.742 112.374 109.861 112.479C106.979 112.583 105.693 115.03 106.729 117.217Z"
        fill="#FF8B7B" />
    <path
        d="M90.5837 135.047C81.7099 138.39 73.5894 143.091 66.6042 148.93L76.1293 159.626C76.1293 159.626 91.941 153.513 96.5964 146.899C99.6921 142.483 97.1203 138.307 95.0486 136.005C94.5264 135.441 93.8071 135.041 93.0007 134.868C92.1943 134.695 91.3453 134.758 90.5837 135.047Z"
        fill="#845715" />
    <path
        d="M128.208 124.737C128.585 124.763 128.963 124.763 129.339 124.737C129.396 124.72 129.443 124.684 129.47 124.638C129.497 124.591 129.501 124.537 129.482 124.487C129.47 124.45 129.445 124.417 129.411 124.393C129.377 124.369 129.335 124.354 129.292 124.351C128.345 124.398 127.398 124.249 126.529 123.916C125.661 123.583 124.894 123.076 124.291 122.435C124.248 122.403 124.193 122.385 124.136 122.385C124.079 122.385 124.024 122.403 123.981 122.435C123.944 122.475 123.923 122.524 123.923 122.576C123.923 122.627 123.944 122.677 123.981 122.716C124.499 123.28 125.138 123.749 125.864 124.096C126.589 124.443 127.386 124.661 128.208 124.737Z"
        fill="#263238" />
    <path
        d="M217.625 331.697V353.454C217.625 353.589 217.625 353.714 217.625 353.849C215.771 356.251 214.787 359.086 214.803 361.983C214.803 369.43 221.03 375.522 228.698 375.522C236.365 375.522 242.592 369.451 242.592 361.983C242.592 354.516 236.353 348.444 228.698 348.444C226.078 348.468 223.531 349.195 221.399 350.527V330.427L222.316 330.25C225.167 329.939 228.044 329.852 230.912 329.989H250.355C251.236 355.245 272.18 375.533 297.802 375.533C323.996 375.533 345.285 354.349 345.285 328.323C345.285 304.88 327.997 285.373 305.422 281.738L309.316 249.192C309.685 246.068 310.066 243.006 310.435 239.913C310.499 237.683 311.048 235.484 312.054 233.435C314.65 228.988 319.043 227.79 323.841 227.467C324.077 227.664 324.356 227.818 324.66 227.92C324.965 228.022 325.29 228.07 325.616 228.061H344.297C347.785 228.061 347.785 223.322 344.297 223.322H325.627C325.268 223.312 324.911 223.369 324.58 223.492C324.249 223.614 323.952 223.798 323.711 224.03H323.365C319.539 224.064 315.843 225.247 312.896 227.383C309.95 229.518 307.933 232.475 307.184 235.757C306.172 240.527 305.994 245.505 305.387 250.338L303.386 267.001H292.397C292.302 265.966 291.768 264.999 290.9 264.29C290.032 263.581 288.893 263.181 287.706 263.169H244.081C242.895 263.181 241.757 263.579 240.89 264.286C240.022 264.993 239.487 265.957 239.39 266.991C235.306 266.928 231.055 266.751 227.233 268.199C214.886 272.948 217.625 286.56 217.625 296.1V331.708V331.697ZM221.328 362.233C223.446 364.035 226.267 365.066 229.222 365.118C231.674 365.233 231.603 361.91 229.222 361.806C225.328 361.629 223.375 360.077 222.387 357.942C222.93 356.856 223.81 355.925 224.928 355.255C226.045 354.585 227.356 354.202 228.71 354.151C232.782 354.151 236.103 357.661 236.103 361.983C236.103 366.305 232.782 369.805 228.71 369.805C224.638 369.805 221.459 366.43 221.328 362.233ZM256.868 329.948H258.785C259.666 350.673 276.823 367.274 297.814 367.274C319.353 367.274 336.879 349.788 336.879 328.281C336.879 309.045 322.841 293.028 304.458 289.872C304.553 289.039 304.66 288.206 304.756 287.383C324.056 290.726 338.796 307.796 338.796 328.281C338.796 351.194 320.412 369.794 297.814 369.794C275.764 369.805 257.737 352.079 256.868 329.958V329.948ZM256.868 326.625C257.737 304.505 275.764 286.768 297.814 286.768C298.886 286.768 299.957 286.821 301.017 286.904C300.922 287.747 300.815 288.581 300.719 289.414C299.755 289.341 298.79 289.289 297.814 289.289C276.823 289.289 259.714 305.89 258.785 326.625H256.868ZM304.16 292.392C321.091 295.423 333.926 310.358 333.926 328.281C333.926 348.392 317.698 364.733 297.755 364.733C278.359 364.733 262.488 349.267 261.619 329.937H280.002C288.122 329.937 298.921 330.979 300.6 321.501C301.398 316.981 301.708 312.357 302.243 307.817L304.16 292.392ZM261.678 326.625C262.547 307.285 278.419 291.82 297.814 291.82C298.683 291.82 299.553 291.82 300.422 291.924C299.699 297.916 298.981 303.901 298.267 309.879C297.695 314.638 298.517 324.345 292.063 326.271C289.682 326.98 286.61 326.625 284.158 326.625H261.678ZM221.411 327.063V290.789C221.411 287.664 221.316 284.477 221.411 281.322C221.625 274.646 227.364 270.345 234.746 270.303H240.902C241.779 270.98 242.911 271.35 244.081 271.344H287.718C288.887 271.35 290.019 270.98 290.897 270.303H303.005C302.565 273.958 302.136 277.593 301.696 281.259C300.41 281.155 299.124 281.092 297.814 281.092C272.192 281.092 251.248 301.37 250.367 326.636H234.186C231.412 326.636 228.626 326.584 225.852 326.636C224.375 326.662 222.904 326.808 221.459 327.073L221.411 327.063Z"
        fill="#845715" />
    <path opacity="0.4"
        d="M217.625 331.697V353.454C217.625 353.589 217.625 353.714 217.625 353.849C215.771 356.251 214.787 359.086 214.803 361.983C214.803 369.43 221.03 375.522 228.698 375.522C236.365 375.522 242.592 369.451 242.592 361.983C242.592 354.516 236.353 348.444 228.698 348.444C226.078 348.468 223.531 349.195 221.399 350.527V330.427L222.316 330.25C225.167 329.939 228.044 329.852 230.912 329.989H250.355C251.236 355.245 272.18 375.533 297.802 375.533C323.996 375.533 345.285 354.349 345.285 328.323C345.285 304.88 327.997 285.373 305.422 281.738L309.316 249.192C309.685 246.068 310.066 243.006 310.435 239.913C310.499 237.683 311.048 235.484 312.054 233.435C314.65 228.988 319.043 227.79 323.841 227.467C324.077 227.664 324.356 227.818 324.66 227.92C324.965 228.022 325.29 228.07 325.616 228.061H344.297C347.785 228.061 347.785 223.322 344.297 223.322H325.627C325.268 223.312 324.911 223.369 324.58 223.492C324.249 223.614 323.952 223.798 323.711 224.03H323.365C319.539 224.064 315.843 225.247 312.896 227.383C309.95 229.518 307.933 232.475 307.184 235.757C306.172 240.527 305.994 245.505 305.387 250.338L303.386 267.001H292.397C292.302 265.966 291.768 264.999 290.9 264.29C290.032 263.581 288.893 263.181 287.706 263.169H244.081C242.895 263.181 241.757 263.579 240.89 264.286C240.022 264.993 239.487 265.957 239.39 266.991C235.306 266.928 231.055 266.751 227.233 268.199C214.886 272.948 217.625 286.56 217.625 296.1V331.708V331.697ZM221.328 362.233C223.446 364.035 226.267 365.066 229.222 365.118C231.674 365.233 231.603 361.91 229.222 361.806C225.328 361.629 223.375 360.077 222.387 357.942C222.93 356.856 223.81 355.925 224.928 355.255C226.045 354.585 227.356 354.202 228.71 354.151C232.782 354.151 236.103 357.661 236.103 361.983C236.103 366.305 232.782 369.805 228.71 369.805C224.638 369.805 221.459 366.43 221.328 362.233ZM256.868 329.948H258.785C259.666 350.673 276.823 367.274 297.814 367.274C319.353 367.274 336.879 349.788 336.879 328.281C336.879 309.045 322.841 293.028 304.458 289.872C304.553 289.039 304.66 288.206 304.756 287.383C324.056 290.726 338.796 307.796 338.796 328.281C338.796 351.194 320.412 369.794 297.814 369.794C275.764 369.805 257.737 352.079 256.868 329.958V329.948ZM256.868 326.625C257.737 304.505 275.764 286.768 297.814 286.768C298.886 286.768 299.957 286.821 301.017 286.904C300.922 287.747 300.815 288.581 300.719 289.414C299.755 289.341 298.79 289.289 297.814 289.289C276.823 289.289 259.714 305.89 258.785 326.625H256.868ZM304.16 292.392C321.091 295.423 333.926 310.358 333.926 328.281C333.926 348.392 317.698 364.733 297.755 364.733C278.359 364.733 262.488 349.267 261.619 329.937H280.002C288.122 329.937 298.921 330.979 300.6 321.501C301.398 316.981 301.708 312.357 302.243 307.817L304.16 292.392ZM261.678 326.625C262.547 307.285 278.419 291.82 297.814 291.82C298.683 291.82 299.553 291.82 300.422 291.924C299.699 297.916 298.981 303.901 298.267 309.879C297.695 314.638 298.517 324.345 292.063 326.271C289.682 326.98 286.61 326.625 284.158 326.625H261.678ZM221.411 327.063V290.789C221.411 287.664 221.316 284.477 221.411 281.322C221.625 274.646 227.364 270.345 234.746 270.303H240.902C241.779 270.98 242.911 271.35 244.081 271.344H287.718C288.887 271.35 290.019 270.98 290.897 270.303H303.005C302.565 273.958 302.136 277.593 301.696 281.259C300.41 281.155 299.124 281.092 297.814 281.092C272.192 281.092 251.248 301.37 250.367 326.636H234.186C231.412 326.636 228.626 326.584 225.852 326.636C224.375 326.662 222.904 326.808 221.459 327.073L221.411 327.063Z"
        fill="white" />
    <path
        d="M221.423 306.89H347.749C350.182 306.89 352.155 305.164 352.155 303.036V302.526C352.155 300.398 350.182 298.672 347.749 298.672H221.423C218.99 298.672 217.017 300.398 217.017 302.526V303.036C217.017 305.164 218.99 306.89 221.423 306.89Z"
        fill="#845715" />
    <path opacity="0.4"
        d="M221.423 306.89H347.749C350.182 306.89 352.155 305.164 352.155 303.036V302.526C352.155 300.398 350.182 298.672 347.749 298.672H221.423C218.99 298.672 217.017 300.398 217.017 302.526V303.036C217.017 305.164 218.99 306.89 221.423 306.89Z"
        fill="black" />
    <path
        d="M245.984 171.185L245.896 171.153C245.488 171.007 245.022 171.177 244.855 171.534L229.729 203.794C229.562 204.151 229.757 204.559 230.164 204.705L230.252 204.736C230.66 204.883 231.126 204.712 231.293 204.356L246.419 172.095C246.586 171.739 246.392 171.331 245.984 171.185Z"
        fill="#263238" />
    <path opacity="0.3"
        d="M245.984 171.185L245.896 171.153C245.488 171.007 245.022 171.177 244.855 171.534L229.729 203.794C229.562 204.151 229.757 204.559 230.164 204.705L230.252 204.736C230.66 204.883 231.126 204.712 231.293 204.356L246.419 172.095C246.586 171.739 246.392 171.331 245.984 171.185Z"
        fill="white" />
    <path
        d="M259.082 183.788L246.152 172.676C246.003 176.786 244.159 180.711 240.961 183.726L259.082 183.788Z"
        fill="#607991" />
    <path
        d="M239.211 201.795C239.211 201.795 240.271 196.588 239.64 194.786C239.349 194.098 238.948 193.449 238.449 192.859C237.52 191.724 236.068 188.475 234.556 187.995C233.865 187.777 232.353 188.454 231.805 188.87C229.674 190.505 227.209 195.202 227.281 197.681C227.281 199.358 229.805 202.295 231.162 203.482C231.837 203.908 232.559 204.275 233.317 204.576L237.342 211.272L243.295 207.867L239.211 201.795Z"
        fill="#FFC3BD" />
    <path
        d="M291.099 199.233C291.099 199.233 279.324 199.941 273.144 204.596C268.179 208.325 257.976 219.281 255.285 219.01C252.594 218.74 242.295 204.586 242.295 204.586C239.31 205.48 236.643 207.037 234.556 209.106C234.556 209.106 247.379 233.445 254.963 233.445C263.631 233.445 284.479 213.147 284.479 213.147L291.099 199.233Z"
        fill="#845715" />
    <path opacity="0.1"
        d="M267.691 227.332C270.072 214.647 273.906 209.866 273.906 209.866L278.669 212.116L280.836 216.521C276.687 220.335 272.299 223.945 267.691 227.332Z"
        fill="black" />
    <path d="M201.206 339.883L196.776 350.152L207.135 351.85L213.16 343.872L201.206 339.883Z"
        fill="#FFC3BD" />
    <path
        d="M196.253 348.548L208.159 350.548C208.378 350.583 208.577 350.683 208.722 350.831C208.867 350.979 208.95 351.166 208.957 351.36L209.266 360.234C209.276 360.611 209.118 360.976 208.824 361.252C208.53 361.528 208.125 361.694 207.695 361.712H207.349C203.051 360.921 199.265 360.077 193.907 359.182C187.573 358.14 189.037 359.057 181.572 357.911C177.072 357.213 177.226 352.62 179.191 352.704C188.097 353.204 189.502 351.048 193.479 348.892C194.323 348.482 195.311 348.36 196.253 348.548Z"
        fill="#263238" />
    <path
        d="M300.136 268.886C300.136 268.886 311.709 297.318 294.314 297.829L256.821 298.901C250.651 298.984 244.482 298.706 238.354 298.068C238.354 298.068 237.83 315.773 210.196 349.486C210.196 349.486 204.647 349.288 198.408 343.924C198.408 343.924 221.602 288.643 230.043 282.29C241.581 273.604 300.136 268.886 300.136 268.886Z"
        fill="#263238" />
    <path opacity="0.1"
        d="M300.136 268.886C300.136 268.886 311.709 297.318 294.314 297.829L256.821 298.901C250.651 298.984 244.482 298.706 238.354 298.068C238.354 298.068 237.83 315.773 210.196 349.486C210.196 349.486 204.647 349.288 198.408 343.924C198.408 343.924 221.602 288.643 230.043 282.29C241.581 273.604 300.136 268.886 300.136 268.886Z"
        fill="white" />
    <path d="M214.088 346.934L210.385 351.475L196.586 345.236L198.527 339.967L214.088 346.934Z"
        fill="#263238" />
    <path opacity="0.5"
        d="M214.088 346.934L210.385 351.475L196.586 345.236L198.527 339.967L214.088 346.934Z"
        fill="white" />
    <path
        d="M326.151 273.323C326.151 273.323 298.028 276.26 274.751 271.126C272.834 259.005 271.84 246.785 271.775 234.549C271.953 216.844 267.727 199.66 298.731 198.493C328.866 197.358 335.533 195.432 329.306 219.49C323.079 243.547 325.044 254.743 326.151 273.323Z"
        fill="#845715" />
    <path d="M215.446 345.747L210.636 355.88L220.935 357.88L227.257 350.079L215.446 345.747Z"
        fill="#FFC3BD" />
    <path
        d="M210.1 354.339L222.006 356.693C222.225 356.732 222.42 356.836 222.56 356.989C222.699 357.141 222.773 357.331 222.768 357.526V366.399C222.77 366.586 222.729 366.771 222.648 366.944C222.568 367.117 222.449 367.275 222.298 367.407C222.148 367.54 221.969 367.645 221.771 367.717C221.574 367.789 221.363 367.826 221.149 367.826C221.034 367.836 220.918 367.836 220.804 367.826C216.541 366.92 212.791 365.962 207.468 364.91C201.182 363.67 202.599 364.649 195.181 363.275C190.716 362.452 191.05 357.859 192.99 358.067C201.884 358.828 203.373 356.724 207.397 354.672C208.224 354.282 209.182 354.164 210.1 354.339Z"
        fill="#263238" />
    <path
        d="M324.687 272.438C324.687 272.438 335.165 298.672 317.758 298.672H280.252C274.081 298.575 267.924 298.119 261.821 297.308C261.821 297.308 256.523 320.481 225.209 354.828C225.209 354.828 218.947 354.464 212.922 348.923C212.922 348.923 237.497 288.664 246.164 282.55C258.035 274.187 324.687 272.438 324.687 272.438Z"
        fill="#263238" />
    <path opacity="0.2"
        d="M324.687 272.438C324.687 272.438 335.165 298.672 317.758 298.672H280.252C274.081 298.575 267.924 298.119 261.821 297.308C261.821 297.308 256.523 320.481 225.209 354.828C225.209 354.828 218.947 354.464 212.922 348.923C212.922 348.923 237.497 288.664 246.164 282.55C258.035 274.187 324.687 272.438 324.687 272.438Z"
        fill="white" />
    <path d="M228.365 353.172L224.483 357.599L210.934 350.965L213.077 345.747L228.365 353.172Z"
        fill="#263238" />
    <path opacity="0.5"
        d="M228.365 353.172L224.483 357.599L210.934 350.965L213.077 345.747L228.365 353.172Z"
        fill="white" />
    <path opacity="0.1"
        d="M326.58 207.533L331.069 211.335C330.711 213.657 330.128 216.355 329.306 219.49C328.592 222.26 327.985 224.853 327.473 227.311C322.901 219.552 320.52 208.648 320.52 208.648L326.58 207.533Z"
        fill="black" />
    <path
        d="M325.675 249.88L319.722 255.566C319.722 255.566 310.756 257.784 308.137 259.326C307.351 259.784 305.625 260.909 305.553 261.731C305.629 262.035 305.774 262.322 305.978 262.576C306.182 262.83 306.443 263.046 306.744 263.21C309.435 264.418 315.864 263.689 318.841 263.21C320.407 262.991 321.904 262.487 323.234 261.731C323.862 260.919 324.351 260.032 324.687 259.097L331.414 254.097L325.675 249.88Z"
        fill="#FFC3BD" />
    <path
        d="M327.818 199.629C337.534 204.93 356.179 219.854 356.155 229.498C356.131 239.142 328.687 257.618 328.687 257.618C328.687 257.618 325.234 256.982 322.627 251.452C322.627 251.452 340.784 233.122 340.427 230.831C340.07 228.54 326.139 220.416 321.877 212.407C317.614 204.399 323.044 197.035 327.818 199.629Z"
        fill="#845715" />
    <path
        d="M309.245 201.837C307.985 202.918 306.512 203.793 304.899 204.419C301.25 205.616 297.322 206.016 293.457 205.586L289.885 204.055L289.635 202.284L289.718 201.847H289.897C296.719 200.806 297.993 195.89 297.469 191.37L311.947 183.351C309.995 188.225 307.471 196.64 309.245 201.837Z"
        fill="#FFC3BD" />
    <path
        d="M312.602 197.962L310.221 200.91L303.863 204.753L296.445 205.794L291.064 205.096L289.325 203.024L290.897 199.233C293.493 198.825 296.119 198.578 298.755 198.494C304.077 198.296 308.673 198.067 312.602 197.962Z"
        fill="#FFC3BD" />
    <path
        d="M295.004 206.659C286.217 206.659 288.146 202.107 290.099 199.368C291.016 199.191 291.992 199.045 293.016 198.92C290.492 201.003 287.67 204.419 295.909 204.784C298.92 204.994 301.939 204.471 304.631 203.272C307.323 202.074 309.583 200.247 311.161 197.994L315.269 197.9C313.578 200.545 308.22 206.659 295.004 206.659Z"
        fill="#845715" />
    <path opacity="0.5"
        d="M295.004 206.659C286.217 206.659 288.146 202.107 290.099 199.368C291.016 199.191 291.992 199.045 293.016 198.92C290.492 201.003 287.67 204.419 295.909 204.784C298.92 204.994 301.939 204.471 304.631 203.272C307.323 202.074 309.583 200.247 311.161 197.994L315.269 197.9C313.578 200.545 308.22 206.659 295.004 206.659Z"
        fill="white" />
    <path opacity="0.2"
        d="M306.053 186.631L297.48 191.318C297.588 192.423 297.588 193.535 297.48 194.64C300.421 194.64 304.469 192.994 306.053 190.38C307.065 188.787 306.756 186.912 306.053 186.631Z"
        fill="black" />
    <path
        d="M297.886 175.425C304.47 171.999 308.077 164.896 307.53 163.323C306.982 161.751 296.647 158.97 295.231 159.626C288.17 162.75 292.599 171.28 292.599 171.28L290.146 174.092L297.886 175.425Z"
        fill="#263238" />
    <path
        d="M315.888 175.144C313.388 182.944 312.376 187.641 306.815 190.766C298.481 195.577 288.194 189.828 287.991 181.559C287.813 174.061 291.944 162.604 301.553 161.136C303.667 160.807 305.843 160.955 307.873 161.569C309.903 162.182 311.721 163.239 313.152 164.639C314.584 166.04 315.582 167.737 316.053 169.57C316.523 171.403 316.45 173.311 315.84 175.112L315.888 175.144Z"
        fill="#FFC3BD" />
    <path
        d="M316.388 180.716C322.543 176.748 325.187 169.78 324.389 168.301C323.877 167.32 323.148 166.437 322.246 165.702C321.343 164.968 320.283 164.396 319.128 164.02C317.972 163.643 316.743 163.47 315.511 163.51C314.279 163.549 313.068 163.801 311.947 164.25C304.803 167.239 310.637 177.091 310.637 177.091L308.494 180.174L316.388 180.716Z"
        fill="#263238" />
    <path
        d="M318.484 183.351C316.853 184.796 314.638 185.623 312.316 185.652C309.221 185.652 308.494 183.069 310.042 180.903C311.423 178.945 314.698 176.591 317.472 177.622C320.246 178.653 320.472 181.538 318.484 183.351Z"
        fill="#FFC3BD" />
    <path
        d="M301.232 174.758C301.077 175.404 300.565 175.8 300.041 175.8C299.517 175.8 299.303 175.123 299.457 174.477C299.612 173.832 300.136 173.384 300.648 173.436C301.16 173.488 301.362 174.123 301.232 174.758Z"
        fill="#263238" />
    <path
        d="M292.897 173.196C292.73 173.831 292.218 174.238 291.706 174.186C291.194 174.133 290.968 173.498 291.135 172.863C291.301 172.228 291.813 171.821 292.325 171.821C292.837 171.821 293.052 172.55 292.897 173.196Z"
        fill="#263238" />
    <path
        d="M295.921 174.019C294.557 175.816 292.914 177.439 291.04 178.841C291.467 179.25 291.99 179.574 292.574 179.79C293.158 180.005 293.788 180.108 294.421 180.091L295.921 174.019Z"
        fill="#ED847E" />
    <path
        d="M304.803 172.28C304.877 172.3 304.956 172.3 305.029 172.28C305.131 172.233 305.209 172.155 305.248 172.061C305.288 171.966 305.286 171.863 305.244 171.769C304.957 171.211 304.524 170.719 303.98 170.334C303.436 169.948 302.796 169.68 302.112 169.551C302.053 169.54 301.992 169.539 301.933 169.549C301.874 169.559 301.817 169.58 301.767 169.609C301.718 169.639 301.675 169.678 301.643 169.723C301.611 169.767 301.59 169.818 301.581 169.87C301.572 169.922 301.575 169.975 301.591 170.026C301.607 170.077 301.634 170.125 301.671 170.167C301.709 170.208 301.756 170.242 301.809 170.267C301.862 170.292 301.921 170.307 301.981 170.311C302.52 170.422 303.022 170.64 303.447 170.949C303.873 171.258 304.211 171.65 304.434 172.092C304.472 172.148 304.526 172.195 304.591 172.228C304.655 172.26 304.728 172.278 304.803 172.28Z"
        fill="#263238" />
    <path
        d="M290.385 169.655C290.458 169.66 290.532 169.648 290.599 169.621C290.665 169.593 290.723 169.551 290.766 169.499C291.096 169.114 291.524 168.8 292.015 168.584C292.507 168.367 293.049 168.252 293.599 168.249C293.714 168.258 293.829 168.227 293.918 168.163C294.007 168.098 294.064 168.006 294.076 167.905C294.082 167.855 294.077 167.803 294.06 167.754C294.043 167.705 294.014 167.66 293.976 167.621C293.938 167.582 293.892 167.55 293.839 167.527C293.787 167.504 293.729 167.491 293.671 167.489C292.969 167.474 292.273 167.606 291.641 167.874C291.01 168.142 290.46 168.539 290.039 169.03C290.004 169.069 289.977 169.114 289.962 169.162C289.946 169.209 289.941 169.26 289.948 169.309C289.954 169.358 289.972 169.406 290 169.45C290.028 169.493 290.066 169.531 290.111 169.561C290.147 169.593 290.189 169.617 290.237 169.633C290.284 169.649 290.334 169.657 290.385 169.655Z"
        fill="#263238" />
    <path
        d="M314.042 167.395C314.042 167.395 285.765 165.062 293.802 155.033C304.065 142.213 306.16 153.065 306.16 153.065C306.16 153.065 323.151 149.794 318.067 158.595C318.079 158.595 334.069 166.635 314.042 167.395Z"
        fill="#263238" />
    <path
        d="M294.552 183.632C294.148 183.582 293.749 183.502 293.361 183.392C293.299 183.377 293.245 183.342 293.212 183.294C293.179 183.245 293.168 183.187 293.183 183.132C293.193 183.104 293.21 183.079 293.232 183.057C293.254 183.035 293.281 183.018 293.311 183.005C293.341 182.993 293.373 182.985 293.407 182.984C293.44 182.982 293.473 182.987 293.504 182.996C294.512 183.28 295.582 183.353 296.628 183.21C297.674 183.067 298.668 182.712 299.529 182.174C299.577 182.134 299.641 182.112 299.707 182.112C299.774 182.112 299.837 182.134 299.886 182.174C299.93 182.214 299.955 182.268 299.955 182.325C299.955 182.381 299.93 182.435 299.886 182.476C299.134 182.976 298.273 183.337 297.356 183.536C296.438 183.735 295.484 183.767 294.552 183.632Z"
        fill="#263238" />
    <path
        d="M227.7 373.229L196.293 369.914C195.613 369.843 194.993 369.537 194.57 369.066C194.147 368.594 193.955 367.995 194.037 367.4L194.077 367.11C194.159 366.515 194.508 365.973 195.047 365.603C195.587 365.233 196.272 365.066 196.952 365.137L228.359 368.452C229.043 368.524 229.665 368.831 230.09 369.305C230.515 369.778 230.708 370.38 230.625 370.978L230.585 371.268C230.503 371.863 230.154 372.405 229.615 372.775C229.076 373.145 228.391 373.313 227.711 373.241L227.7 373.229Z"
        fill="#845715" />
    <g opacity="0.4">
        <path
            d="M227.701 373.229L196.293 369.914C195.613 369.843 194.993 369.537 194.57 369.066C194.147 368.594 193.956 367.995 194.038 367.4L194.078 367.11C194.16 366.515 194.509 365.973 195.048 365.603C195.587 365.233 196.272 365.066 196.952 365.137L228.36 368.452C229.043 368.524 229.666 368.831 230.091 369.305C230.516 369.778 230.708 370.38 230.626 370.978L230.586 371.268C230.504 371.863 230.155 372.405 229.616 372.775C229.077 373.145 228.392 373.313 227.711 373.241L227.701 373.229Z"
            fill="black" />
    </g>
    <path
        d="M389.624 227.321H376.122C369.622 227.321 363.085 227.54 359.656 233.403C358.646 235.452 358.092 237.651 358.025 239.881L356.917 249.161C354.536 268.72 352.195 288.278 349.893 307.837C349.357 312.378 349.047 317.002 348.238 321.522C346.559 330.989 335.772 329.958 327.652 329.958H278.514C275.641 329.821 272.761 329.908 269.906 330.218C260.035 331.843 254.249 341.581 248.7 348.069L229.984 369.94C229.567 370.44 229.138 370.982 228.71 371.429C227.269 373.127 223.947 371.429 225.435 369.753C235.496 357.984 245.414 346.09 255.642 334.426C257.718 332.013 260.404 330.052 263.489 328.697C266.575 327.342 269.977 326.629 273.43 326.615C276.216 326.563 279.002 326.615 281.764 326.615H331.771C334.224 326.615 337.308 326.969 339.677 326.261C346.13 324.334 345.309 314.628 345.88 309.868C348.262 290.018 350.643 270.16 353.024 250.296C353.596 245.485 353.798 240.506 354.81 235.716C355.554 232.429 357.569 229.468 360.515 227.328C363.462 225.189 367.161 224.002 370.991 223.968C375.587 223.843 380.218 223.968 384.826 223.968H389.66C390.162 223.968 390.644 224.142 390.999 224.453C391.354 224.763 391.553 225.185 391.553 225.624C391.553 226.063 391.354 226.484 390.999 226.795C390.644 227.105 390.162 227.28 389.66 227.28L389.624 227.321Z"
        fill="#845715" />
    <g opacity="0.5">
        <path
            d="M389.624 227.321H376.122C369.622 227.321 363.085 227.54 359.656 233.403C358.646 235.452 358.092 237.651 358.025 239.881L356.917 249.161C354.536 268.72 352.195 288.278 349.893 307.837C349.357 312.378 349.047 317.002 348.238 321.522C346.559 330.989 335.772 329.958 327.652 329.958H278.514C275.641 329.821 272.761 329.908 269.906 330.218C260.035 331.843 254.249 341.581 248.7 348.069L229.984 369.94C229.567 370.44 229.138 370.982 228.71 371.429C227.269 373.127 223.947 371.429 225.435 369.753C235.496 357.984 245.414 346.09 255.642 334.426C257.718 332.013 260.404 330.052 263.489 328.697C266.575 327.342 269.977 326.629 273.43 326.615C276.216 326.563 279.002 326.615 281.764 326.615H331.771C334.224 326.615 337.308 326.969 339.677 326.261C346.13 324.334 345.309 314.628 345.88 309.868C348.262 290.018 350.643 270.16 353.024 250.296C353.596 245.485 353.798 240.506 354.81 235.716C355.554 232.429 357.569 229.468 360.515 227.328C363.462 225.189 367.161 224.002 370.991 223.968C375.587 223.843 380.218 223.968 384.826 223.968H389.66C390.162 223.968 390.644 224.142 390.999 224.453C391.354 224.763 391.553 225.185 391.553 225.624C391.553 226.063 391.354 226.484 390.999 226.795C390.644 227.105 390.162 227.28 389.66 227.28L389.624 227.321Z"
            fill="white" />
    </g>
    <path
        d="M391.898 228.082H373.217C369.728 228.082 369.728 223.343 373.217 223.343H391.898C395.387 223.343 395.387 228.082 391.898 228.082Z"
        fill="#845715" />
    <g opacity="0.4">
        <path
            d="M391.898 228.082H373.217C369.728 228.082 369.728 223.343 373.217 223.343H391.898C395.387 223.343 395.387 228.082 391.898 228.082Z"
            fill="black" />
    </g>
    <path
        d="M262.404 361.983C262.404 354.526 268.631 348.444 276.299 348.444C283.967 348.444 290.194 354.506 290.194 361.983C290.194 369.461 283.955 375.522 276.299 375.522C268.643 375.522 262.404 369.43 262.404 361.983ZM268.905 361.983C268.905 366.295 272.215 369.805 276.299 369.805C280.383 369.805 283.681 366.295 283.681 361.983C283.681 357.672 280.371 354.151 276.299 354.151C272.227 354.151 268.905 357.661 268.905 361.983Z"
        fill="#263238" />
    <g opacity="0.1">
        <path
            d="M262.404 361.983C262.404 354.526 268.631 348.444 276.299 348.444C283.967 348.444 290.194 354.506 290.194 361.983C290.194 369.461 283.955 375.522 276.299 375.522C268.643 375.522 262.404 369.43 262.404 361.983ZM268.905 361.983C268.905 366.295 272.215 369.805 276.299 369.805C280.383 369.805 283.681 366.295 283.681 361.983C283.681 357.672 280.371 354.151 276.299 354.151C272.227 354.151 268.905 357.661 268.905 361.983Z"
            fill="white" />
    </g>
    <path
        d="M352.429 270.303C329.081 270.303 305.732 270.188 282.384 270.303C274.954 270.303 269.287 274.646 269.049 281.321C268.941 284.446 269.049 287.633 269.049 290.788V349.611C269.049 354.818 268.572 361.442 276.859 361.806C279.24 361.91 279.24 365.233 276.859 365.118C269.251 364.785 265.25 359.682 265.25 353.454V296.09C265.25 286.55 262.512 272.938 274.871 268.189C279.098 266.564 283.955 266.991 288.468 266.991H352.429C352.931 266.991 353.413 267.165 353.768 267.476C354.123 267.786 354.322 268.208 354.322 268.647C354.322 269.086 354.123 269.507 353.768 269.818C353.413 270.128 352.931 270.303 352.429 270.303Z"
        fill="#845715" />
    <g opacity="0.7">
        <path
            d="M352.429 270.303C329.081 270.303 305.732 270.188 282.384 270.303C274.954 270.303 269.287 274.646 269.049 281.321C268.941 284.446 269.049 287.633 269.049 290.788V349.611C269.049 354.818 268.572 361.442 276.859 361.806C279.24 361.91 279.24 365.233 276.859 365.118C269.251 364.785 265.25 359.682 265.25 353.454V296.09C265.25 286.55 262.512 272.938 274.871 268.189C279.098 266.564 283.955 266.991 288.468 266.991H352.429C352.931 266.991 353.413 267.165 353.768 267.476C354.123 267.786 354.322 268.208 354.322 268.647C354.322 269.086 354.123 269.507 353.768 269.818C353.413 270.128 352.931 270.303 352.429 270.303Z"
            fill="white" />
    </g>
    <path
        d="M291.373 271.375H335.605C338.038 271.375 340.011 269.65 340.011 267.522V267.012C340.011 264.884 338.038 263.158 335.605 263.158H291.373C288.94 263.158 286.968 264.884 286.968 267.012V267.522C286.968 269.65 288.94 271.375 291.373 271.375Z"
        fill="#845715" />
    <path opacity="0.4"
        d="M291.373 271.375H335.605C338.038 271.375 340.011 269.65 340.011 267.522V267.012C340.011 264.884 338.038 263.158 335.605 263.158H291.373C288.94 263.158 286.968 264.884 286.968 267.012V267.522C286.968 269.65 288.94 271.375 291.373 271.375Z"
        fill="black" />
    <path
        d="M297.909 328.292C297.909 302.255 319.21 281.092 345.392 281.092C371.574 281.092 392.91 302.265 392.91 328.292C392.91 354.318 371.61 375.502 345.416 375.502C319.222 375.502 297.909 354.318 297.909 328.292ZM304.422 328.292C304.422 351.204 322.805 369.805 345.392 369.805C367.978 369.805 386.374 351.183 386.374 328.292C386.374 305.4 367.99 286.779 345.392 286.779C322.793 286.779 304.422 305.4 304.422 328.292Z"
        fill="#263238" />
    <g opacity="0.1">
        <path
            d="M297.909 328.292C297.909 302.255 319.21 281.092 345.392 281.092C371.574 281.092 392.91 302.265 392.91 328.292C392.91 354.318 371.61 375.502 345.416 375.502C319.222 375.502 297.909 354.318 297.909 328.292ZM304.422 328.292C304.422 351.204 322.805 369.805 345.392 369.805C367.978 369.805 386.374 351.183 386.374 328.292C386.374 305.4 367.99 286.779 345.392 286.779C322.793 286.779 304.422 305.4 304.422 328.292Z"
            fill="white" />
    </g>
    <path
        d="M306.327 328.292C306.327 306.796 323.853 289.299 345.392 289.299C366.931 289.299 384.469 306.796 384.469 328.292C384.469 349.788 366.943 367.284 345.392 367.284C323.841 367.284 306.327 349.798 306.327 328.292ZM309.22 328.292C309.22 348.403 325.449 364.743 345.392 364.743C365.335 364.743 381.575 348.392 381.575 328.292C381.575 308.191 365.347 291.84 345.392 291.84C325.437 291.84 309.22 308.191 309.22 328.292Z"
        fill="#845715" />
    <g opacity="0.7">
        <path
            d="M306.327 328.292C306.327 306.796 323.853 289.299 345.392 289.299C366.931 289.299 384.469 306.796 384.469 328.292C384.469 349.788 366.943 367.284 345.392 367.284C323.841 367.284 306.327 349.798 306.327 328.292ZM309.22 328.292C309.22 348.403 325.449 364.743 345.392 364.743C365.335 364.743 381.575 348.392 381.575 328.292C381.575 308.191 365.347 291.84 345.392 291.84C325.437 291.84 309.22 308.191 309.22 328.292Z"
            fill="white" />
    </g>
</svg>
