<svg width="424" height="294" viewBox="0 0 424 294" fill="none" xmlns="http://www.w3.org/2000/svg">
    <g clip-path="url(#clip0_458_1847)">
        <path
            d="M114.809 267.649H11.3665C11.3665 267.649 9.26969 236.897 21.6758 236.547C34.0818 236.198 32.6839 250.176 48.2352 230.956C63.7864 211.736 82.6576 212.784 85.1039 224.141C87.5502 235.499 80.3861 244.585 93.4911 241.789C106.596 238.993 125.467 246.332 114.809 267.649Z"
            fill="#255D69" />
        <path
            d="M61.3413 267.656L60.9922 267.642C61.8064 247.395 66.0469 234.386 69.4609 227.038C73.1676 219.06 76.7396 215.83 76.7753 215.799L77.0075 216.06C76.9723 216.091 73.442 219.289 69.7649 227.213C66.3698 234.53 62.1525 247.485 61.3413 267.656Z"
            fill="#F2F2F2" />
        <path
            d="M98.7796 267.698L98.4441 267.6C102.484 253.735 111.997 244.98 112.092 244.894L112.327 245.152C112.232 245.238 102.791 253.931 98.7796 267.698Z"
            fill="#F2F2F2" />
        <path
            d="M27.6589 267.673L27.3127 267.625C28.6832 257.74 26.2075 250.071 23.8892 245.379C21.3791 240.297 18.515 237.522 18.4863 237.495L18.7281 237.243C18.7572 237.27 21.6656 240.088 24.2025 245.224C26.5425 249.961 29.0417 257.7 27.6589 267.673Z"
            fill="#F2F2F2" />
        <path
            d="M128.848 268.116H0.209188L0.179512 267.68C0.105554 266.597 -1.53543 241.027 6.74962 231.904C8.60175 229.865 10.8328 228.794 13.3807 228.722C18.7812 228.569 22.175 230.592 24.9123 232.215C30.0718 235.276 33.4802 237.298 45.8729 221.982C59.298 205.389 73.7832 201.819 82.1102 203.804C87.4904 205.087 91.1986 208.712 92.284 213.751C93.3116 218.522 92.9843 223.005 92.7213 226.607C92.4399 230.461 92.2175 233.505 93.8005 234.885C95.122 236.036 97.7596 236.141 102.101 235.214C110.931 233.331 123.251 234.942 129.435 242.932C132.762 247.231 135.383 255.045 128.977 267.858L128.848 268.116ZM1.08709 267.181H128.269C133.043 257.496 133.192 249.313 128.696 243.505C123.023 236.175 111.121 234.246 102.296 236.129C97.5792 237.135 94.7689 236.969 93.1863 235.59C91.2509 233.903 91.4883 230.654 91.7886 226.539C92.0475 222.996 92.3693 218.588 91.37 213.948C90.3636 209.275 86.9095 205.91 81.8934 204.714C73.832 202.79 59.7516 206.315 46.5997 222.57C33.6992 238.514 29.813 236.209 24.4355 233.019C21.6644 231.376 18.518 229.512 13.4072 229.657C11.1232 229.721 9.11627 230.689 7.44173 232.533C-0.00447067 240.732 0.904704 263.725 1.08709 267.181Z"
            fill="#701072" />
        <path
            d="M405.909 267.649H302.467C302.467 267.649 300.37 236.897 312.776 236.547C325.182 236.198 323.784 250.176 339.335 230.956C354.887 211.736 373.758 212.784 376.204 224.141C378.65 235.499 371.486 244.585 384.591 241.789C397.696 238.993 416.567 246.332 405.909 267.649Z"
            fill="#255D69" />
        <path
            d="M352.441 267.656L352.092 267.642C352.906 247.395 357.147 234.386 360.561 227.038C364.268 219.06 367.84 215.83 367.875 215.799L368.108 216.06C368.072 216.091 364.542 219.289 360.865 227.213C357.47 234.53 353.253 247.485 352.441 267.656Z"
            fill="#F2F2F2" />
        <path
            d="M389.88 267.698L389.544 267.6C393.584 253.735 403.097 244.98 403.192 244.894L403.427 245.152C403.332 245.238 393.891 253.931 389.88 267.698Z"
            fill="#F2F2F2" />
        <path
            d="M318.759 267.673L318.413 267.625C319.783 257.74 317.308 250.071 314.989 245.379C312.479 240.297 309.615 237.522 309.586 237.495L309.828 237.243C309.857 237.27 312.766 240.088 315.303 245.224C317.643 249.961 320.142 257.7 318.759 267.673Z"
            fill="#F2F2F2" />
        <path
            d="M419.948 268.116H291.309L291.28 267.68C291.206 266.597 289.565 241.027 297.85 231.904C299.702 229.865 301.933 228.794 304.481 228.722C309.881 228.569 313.275 230.592 316.012 232.215C321.172 235.276 324.58 237.298 336.973 221.982C350.398 205.389 364.883 201.819 373.21 203.804C378.591 205.087 382.299 208.712 383.384 213.751C384.412 218.522 384.084 223.005 383.821 226.607C383.54 230.461 383.318 233.505 384.901 234.885C386.222 236.036 388.86 236.141 393.201 235.214C402.031 233.331 414.351 234.942 420.535 242.932C423.863 247.231 426.483 255.045 420.077 267.858L419.948 268.116ZM292.187 267.181H419.369C424.143 257.496 424.292 249.313 419.796 243.505C414.123 236.175 402.221 234.246 393.396 236.129C388.679 237.135 385.869 236.969 384.286 235.59C382.351 233.903 382.588 230.654 382.889 226.539C383.148 222.996 383.469 218.588 382.47 213.948C381.464 209.275 378.01 205.91 372.994 204.714C364.932 202.79 350.852 206.315 337.7 222.57C324.799 238.514 320.913 236.209 315.536 233.019C312.765 231.376 309.618 229.512 304.507 229.657C302.223 229.721 300.216 230.689 298.542 232.533C291.096 240.732 292.005 263.725 292.187 267.181Z"
            fill="#701072" />
        <path
            d="M199.359 180.32C190.293 180.32 182.343 189.79 177.959 203.929C177.649 204.922 177.358 205.941 177.087 206.976C175.241 214.225 174.324 221.679 174.358 229.159C174.358 256.089 185.572 277.997 199.359 277.997C213.147 277.997 224.361 256.089 224.361 229.159C224.361 202.228 213.147 180.32 199.359 180.32ZM199.359 277.222C186.002 277.222 175.133 255.659 175.133 229.159C175.097 221.647 176.026 214.162 177.897 206.887C178.153 205.914 178.427 204.96 178.719 204.026C182.986 190.278 190.642 181.096 199.359 181.096C212.717 181.096 223.585 202.658 223.585 229.159C223.585 255.659 212.717 277.222 199.359 277.222Z"
            fill="#3F3D56" />
        <path
            d="M205.368 257.396C200.586 257.396 196.84 244.993 196.84 229.159C196.84 213.325 200.586 200.921 205.368 200.921C210.15 200.921 213.895 213.325 213.895 229.159C213.895 244.993 210.15 257.396 205.368 257.396ZM205.368 201.697C201.166 201.697 197.615 214.273 197.615 229.159C197.615 244.045 201.166 256.621 205.368 256.621C209.57 256.621 213.12 244.045 213.12 229.159C213.12 214.273 209.57 201.697 205.368 201.697Z"
            fill="#3F3D56" />
        <path
            d="M206.336 235.644C208.156 235.644 209.631 232.74 209.631 229.159C209.631 225.577 208.156 222.673 206.336 222.673C204.517 222.673 203.042 225.577 203.042 229.159C203.042 232.74 204.517 235.644 206.336 235.644Z"
            fill="#701072" />
        <path d="M199.166 141.172L252.269 140.978V161.898L199.166 164.041V141.172Z" fill="#3F3D56" />
        <path
            d="M153.814 212.125L153.04 212.083L155.386 169.467H203.429V170.242H156.12L153.814 212.125Z"
            fill="#3F3D56" />
        <path d="M153.734 281.09L126.601 276.438L126.762 275.68L153.895 280.331L153.734 281.09Z"
            fill="#3F3D56" />
        <path d="M159.273 290.014L159.209 290.787L192.157 293.5L192.22 292.727L159.273 290.014Z"
            fill="#3F3D56" />
        <path
            d="M235.699 212.166C235.408 213.1 235.134 214.054 234.877 215.026L234.067 215.116L208.856 217.918L151.101 212.104L211.182 209.003L234.939 212.069L235.699 212.166Z"
            fill="#3F3D56" />
        <path
            d="M222.492 73.461C222.492 73.461 214.097 70.4628 208.7 82.4555C203.303 94.4482 194.908 107.64 194.908 107.64L199.705 108.839C199.705 108.839 200.904 100.445 203.903 99.2453L202.703 110.039C202.703 110.039 238.682 122.631 254.873 108.839L254.273 104.642C254.273 104.642 256.672 105.242 256.672 108.839L258.471 107.041C258.471 107.041 256.672 103.443 251.275 98.6456C247.733 95.4971 246.516 89.5069 246.097 85.7618C245.784 82.6345 244.533 79.675 242.508 77.2713C238.921 73.1149 232.386 68.6973 222.492 73.461Z"
            fill="#2F2E41" />
        <path
            d="M176.102 84.7756L172.614 48.3407C172.614 48.3407 165.637 28.5728 176.102 30.1232C186.568 31.6737 180.366 46.7903 180.366 46.7903L186.181 84.7756H176.102Z"
            fill="#FFB9B9" />
        <path d="M148.969 250.283L145.093 263.462L152.458 269.663L157.884 252.996L148.969 250.283Z"
            fill="#FFB9B9" />
        <path
            d="M178.816 259.973L174.94 273.927L188.506 282.454C188.506 282.454 188.894 266.563 190.832 263.462L178.816 259.973Z"
            fill="#FFB9B9" />
        <path
            d="M195.483 185.553L193.545 189.429C193.545 189.429 171.451 179.351 165.637 193.305C159.823 207.259 147.031 251.446 147.031 251.446L158.272 256.097L178.816 209.197L225.717 208.034L227.656 182.065L195.483 185.553Z"
            fill="#2F2E41" />
        <path
            d="M211.763 192.142C211.763 192.142 179.979 185.553 177.653 201.445C175.327 217.337 178.816 247.57 179.203 248.345C179.591 249.12 177.653 263.462 177.653 263.462L191.607 265.4C191.607 265.4 200.522 223.151 196.646 212.298L222.872 210.676C231.925 210.116 239.321 202.964 239.842 193.909C240.041 190.443 239.173 187.297 236.183 185.553C226.88 180.127 209.825 180.127 209.825 180.127L211.763 192.142Z"
            fill="#2F2E41" />
        <path
            d="M150.132 263.074C150.132 263.074 147.419 257.26 143.543 259.973C139.667 262.686 130.751 268.501 130.751 268.501C130.751 268.501 116.96 273.357 129.201 276.64C140.089 279.561 142.768 278.966 142.768 278.966C142.768 278.966 151.683 280.516 152.846 279.741C154.008 278.966 154.784 266.563 154.784 266.563C154.784 266.563 149.357 265.4 150.132 263.074Z"
            fill="#2F2E41" />
        <path
            d="M180.366 275.09C180.366 275.09 176.49 269.663 173.777 271.989C171.064 274.315 161.373 280.904 161.373 280.904C161.373 280.904 145.093 285.555 159.435 289.819C173.777 294.083 189.669 293.307 190.057 291.757C190.444 290.206 189.282 278.966 189.282 278.966C189.282 278.966 181.142 278.578 180.366 275.09Z"
            fill="#2F2E41" />
        <path
            d="M226.88 111.908C234.587 111.908 240.834 105.661 240.834 97.9542C240.834 90.2477 234.587 84.0004 226.88 84.0004C219.174 84.0004 212.926 90.2477 212.926 97.9542C212.926 105.661 219.174 111.908 226.88 111.908Z"
            fill="#FFB9B9" />
        <path
            d="M216.802 104.156C216.802 104.156 216.027 120.048 212.151 121.211C208.275 122.373 197.421 135.164 202.46 139.04C207.499 142.916 236.571 140.203 236.571 140.203L233.857 120.048C233.857 120.048 227.655 115.784 232.694 108.42L216.802 104.156Z"
            fill="#FFB9B9" />
        <path
            d="M216.415 130.513L213.701 117.722L204.786 114.234L197.421 131.288C197.421 131.288 189.088 186.522 191.413 187.297C192.718 187.758 194.102 187.955 195.483 187.879C195.483 187.879 207.887 184.003 211.763 185.941C215.639 187.879 235.796 189.429 235.796 189.429C235.796 189.429 249.75 182.065 248.974 175.475C248.199 168.886 248.974 132.063 248.974 132.063L247.23 115.59L231.936 117.983L216.415 130.513Z"
            fill="#701072" />
        <path
            d="M205.174 116.172L204.786 113.846L193.933 100.667L187.731 78.5738L172.614 84.3879L183.467 111.133L198.972 130.901L205.174 116.172Z"
            fill="#701072" />
        <path
            d="M208.548 99.623C208.548 99.623 213.345 93.027 217.543 91.8278C221.74 90.6285 222.34 84.6322 222.34 84.6322C222.34 84.6322 233.134 96.6248 239.73 97.2245C246.326 97.8241 240.33 82.8333 240.33 82.8333L228.337 79.8351L216.943 81.0343L207.948 87.0307L208.548 99.623Z"
            fill="#2F2E41" />
        <path
            d="M253.432 189.248L253.057 173.343H216.986L215.833 215.991L215.058 215.969L216.231 172.568H253.807L253.819 172.943L254.207 189.222L253.432 189.248Z"
            fill="#3F3D56" />
        <path
            d="M252.657 167.529H251.881V137.943L264.394 141.575L264.177 142.32L252.657 138.975V167.529Z"
            fill="#3F3D56" />
        <path
            d="M256.339 188.46C247.273 188.46 239.323 197.929 234.939 212.069C234.629 213.061 234.338 214.081 234.067 215.116C232.22 222.364 231.304 229.818 231.338 237.298C231.338 264.229 242.552 286.137 256.339 286.137C270.127 286.137 281.34 264.229 281.34 237.298C281.34 210.368 270.127 188.46 256.339 188.46ZM256.339 285.361C242.982 285.361 232.113 263.799 232.113 237.298C232.077 229.787 233.006 222.302 234.877 215.027C235.133 214.054 235.407 213.1 235.699 212.166C239.966 198.418 247.622 189.235 256.339 189.235C269.696 189.235 280.565 210.798 280.565 237.298C280.565 263.799 269.696 285.361 256.339 285.361Z"
            fill="#3F3D56" />
        <path
            d="M262.347 265.536C257.565 265.536 253.82 253.132 253.82 237.298C253.82 221.464 257.565 209.061 262.347 209.061C267.129 209.061 270.875 221.464 270.875 237.298C270.875 253.132 267.129 265.536 262.347 265.536ZM262.347 209.836C258.145 209.836 254.595 222.412 254.595 237.298C254.595 252.184 258.145 264.76 262.347 264.76C266.549 264.76 270.099 252.184 270.099 237.298C270.099 222.412 266.549 209.836 262.347 209.836Z"
            fill="#3F3D56" />
        <path
            d="M263.316 243.784C265.136 243.784 266.611 240.88 266.611 237.298C266.611 233.716 265.136 230.813 263.316 230.813C261.497 230.813 260.021 233.716 260.021 237.298C260.021 240.88 261.497 243.784 263.316 243.784Z"
            fill="#701072" />
        <path d="M258.083 137.296L266.223 140.397L264.673 144.661L258.083 141.947V137.296Z"
            fill="#3F3D56" />
        <path d="M225.911 170.63V176.832H249.006V171.042L225.911 170.63Z" fill="#3F3D56" />
        <path d="M166.606 167.529V173.731H189.7V167.941L166.606 167.529Z" fill="#3F3D56" />
        <path
            d="M245.545 36.2818H87.5427V0.5H245.545V36.2818ZM88.4722 35.3524H244.615V1.4294H88.4722V35.3524Z"
            fill="#3F3D56" />
        <path d="M117.749 12.5822H100.09V30.2407H117.749V12.5822Z" fill="#9BB1C8" />
        <path
            d="M115.425 27.9172H96.8369V9.32928H115.425V27.9172ZM97.7664 26.9878H114.496V10.2587H97.7663L97.7664 26.9878Z"
            fill="#3F3D56" />
        <path d="M227.421 13.0469H144.702V13.9763H227.421V13.0469Z" fill="#3F3D56" />
        <path d="M227.421 19.5526H144.702V20.482H227.421V19.5526Z" fill="#3F3D56" />
        <path d="M227.421 26.0584H144.702V26.9878H227.421V26.0584Z" fill="#3F3D56" />
        <path
            d="M208.856 152.482H208.668V147.32C208.668 146.928 208.59 146.539 208.44 146.177C208.29 145.815 208.07 145.485 207.793 145.208C207.515 144.93 207.186 144.71 206.823 144.56C206.461 144.41 206.073 144.333 205.68 144.333H194.745C194.353 144.333 193.964 144.41 193.602 144.56C193.239 144.71 192.91 144.93 192.633 145.208C192.355 145.485 192.135 145.815 191.985 146.177C191.835 146.539 191.758 146.928 191.758 147.32V175.636C191.758 176.028 191.835 176.417 191.985 176.779C192.135 177.141 192.355 177.471 192.633 177.748C192.91 178.026 193.239 178.246 193.602 178.396C193.964 178.546 194.353 178.623 194.745 178.623H205.68C206.073 178.623 206.461 178.546 206.823 178.396C207.186 178.246 207.515 178.026 207.793 177.748C208.07 177.471 208.29 177.141 208.44 176.779C208.59 176.417 208.668 176.028 208.668 175.636V156.155H208.856V152.482Z"
            fill="#3F3D56" />
        <path
            d="M200.307 154.959C201.318 154.959 202.137 154.139 202.137 153.129C202.137 152.118 201.318 151.299 200.307 151.299C199.296 151.299 198.477 152.118 198.477 153.129C198.477 154.139 199.296 154.959 200.307 154.959Z"
            fill="#701072" />
        <path
            d="M246.679 171.004L210.083 170.315C210.083 170.315 189.648 174.993 192.382 164.773C195.115 154.552 209.427 162.437 209.427 162.437L247.828 160.992L246.679 171.004Z"
            fill="#FFB9B9" />
        <path
            d="M242.966 118.304L246.455 115.59C246.455 115.59 252.269 112.489 253.432 123.342C254.595 134.195 263.123 170.243 254.595 170.63C246.067 171.018 224.361 171.405 224.361 171.405L226.687 159.39L244.517 158.227L242.966 118.304Z"
            fill="#701072" />
        <path opacity="0.15"
            d="M244.129 134.97L242.966 157.064L225.911 160.552L241.416 154.351L244.129 134.97Z"
            fill="black" />
    </g>
    <defs>
        <clipPath id="clip0_458_1847">
            <rect width="424" height="293" fill="white" transform="translate(0 0.5)" />
        </clipPath>
    </defs>
</svg>
