<svg width="20" height="23" viewBox="0 0 20 23" fill="none" xmlns="http://www.w3.org/2000/svg">
    <path fill-rule="evenodd" clip-rule="evenodd" d="M8.14643 2.14645C8.2402 2.05268 8.36738 2 8.49999 2C8.6326 2 8.75977 2.05268 8.85354 2.14645C8.94731 2.24021 8.99999 2.36739 8.99999 2.5V11C8.99999 11.5523 9.4477 12 9.99999 12C10.5523 12 11 11.5523 11 11V6.5C11 6.36739 11.0527 6.24021 11.1464 6.14645C11.2402 6.05268 11.3674 6 11.5 6C11.6326 6 11.7598 6.05268 11.8535 6.14645C11.9473 6.24021 12 6.36739 12 6.5V11C12 11.5523 12.4477 12 13 12C13.5523 12 14 11.5523 14 11V7.5C14 7.36739 14.0527 7.24021 14.1464 7.14645C14.2402 7.05268 14.3674 7 14.5 7C14.6326 7 14.7598 7.05268 14.8535 7.14645C14.9473 7.24022 15 7.36739 15 7.5V11C15 11.5523 15.4477 12 16 12C16.5523 12 17 11.5523 17 11V9.50789C17 9.50526 17 9.50263 17 9.5C17 9.34271 17.0317 9.25924 17.0525 9.21895C17.0737 9.17794 17.103 9.14463 17.1463 9.11373C17.2527 9.03772 17.4148 8.99999 17.52 8.99999C17.7845 8.99999 18 9.20175 18 9.5V16C18 17.709 17.3451 18.9138 16.3301 19.7151C15.2856 20.5397 13.7742 21 12 21C10.1524 21 9.1083 20.7591 8.16942 20.0692C7.16066 19.3279 6.16804 17.9964 4.66151 15.4855L3.08935 12.8786L3.08387 12.8696C2.90178 12.5747 3.02701 12.1603 3.42215 12.0323L3.42455 12.0316C3.55265 11.9897 3.69052 11.9883 3.81946 12.0274C3.9484 12.0666 4.06219 12.1444 4.14539 12.2504C4.15481 12.2624 4.1645 12.2742 4.17446 12.2858L6.24246 14.6858C6.60297 15.1041 7.23439 15.1511 7.65278 14.7906C7.88687 14.5889 8.00467 14.3024 7.9999 14.0158L8.00002 14V5.52C8.00002 5.5174 8.00001 5.51481 7.99999 5.51222V2.5C7.99999 2.36739 8.05267 2.24021 8.14643 2.14645ZM6.00002 11.0078C6 11.0052 5.99999 11.0026 5.99999 11V2.5C5.99999 1.83696 6.26338 1.20107 6.73222 0.732233C7.20106 0.263392 7.83695 0 8.49999 0C9.16303 0 9.79891 0.263392 10.2678 0.732233C10.7366 1.20107 11 1.83696 11 2.5V4.0505C11.1633 4.01715 11.3308 4 11.5 4C12.163 4 12.7989 4.26339 13.2678 4.73223C13.3992 4.86368 13.5145 5.00826 13.6124 5.16288C13.8933 5.0562 14.1937 5 14.5 5C15.163 5 15.7989 5.26339 16.2678 5.73223C16.6318 6.09633 16.872 6.56116 16.9612 7.06122C17.1654 7.01738 17.3569 6.99999 17.52 6.99999C18.9336 6.99999 20 8.14224 20 9.5V16C20 18.291 19.0879 20.0861 17.5694 21.2849C16.0805 22.4603 14.0918 23 12 23C9.98159 23 8.42773 22.7409 6.98512 21.6808C5.61257 20.6722 4.44032 19.0041 2.94715 16.5155L2.94653 16.5145L1.3791 13.9154C0.494174 12.4754 1.22647 10.642 2.80468 10.13C3.32237 9.96119 3.87946 9.95547 4.40052 10.1137C4.91383 10.2695 5.36774 10.5771 5.70276 10.9955L6.00002 11.3405V11.0078Z" fill="#34495E"/>
</svg>
    